<?xml version="1.0" encoding="UTF-8"?>
<!--Generator: Apple Native CoreSVG 341-->
<!DOCTYPE svg
PUBLIC "-//W3C//DTD SVG 1.1//EN"
       "http://www.w3.org/Graphics/SVG/1.1/DTD/svg11.dtd">
<svg version="1.1" xmlns="http://www.w3.org/2000/svg" xmlns:xlink="http://www.w3.org/1999/xlink" viewBox="0 0 3300 2200">
 <!--glyph: "", point size: 100.0, font version: "21.0d4e1", template writer version: "138.0.0"-->
 <style>.defaults {-sfsymbols-variable-value-mode:color;-sfsymbols-draw-reverses-motion-groups:true}

.monochrome-0 {-sfsymbols-motion-group:0;-sfsymbols-layer-tags:738fdcf9935cc898}

.multicolor-0:tintColor {-sfsymbols-motion-group:0;-sfsymbols-layer-tags:738fdcf9935cc898}

.hierarchical-0:primary {-sfsymbols-motion-group:0;-sfsymbols-layer-tags:738fdcf9935cc898}

.SFSymbolsPreviewWireframe {fill:none;opacity:1.0;stroke:black;stroke-width:0.5}
</style>
 <g id="Notes">
  <rect height="2200" id="artboard" style="fill:white;opacity:1" width="3300" x="0" y="0"/>
  <line style="fill:none;stroke:black;opacity:1;stroke-width:0.5;" x1="263" x2="3036" y1="292" y2="292"/>
  <text style="stroke:none;fill:black;font-family:sans-serif;font-size:13;font-weight:bold;" transform="matrix(1 0 0 1 263 322)">Weight/Scale Variations</text>
  <text style="stroke:none;fill:black;font-family:sans-serif;font-size:13;text-anchor:middle;" transform="matrix(1 0 0 1 559.711 322)">Ultralight</text>
  <text style="stroke:none;fill:black;font-family:sans-serif;font-size:13;text-anchor:middle;" transform="matrix(1 0 0 1 856.422 322)">Thin</text>
  <text style="stroke:none;fill:black;font-family:sans-serif;font-size:13;text-anchor:middle;" transform="matrix(1 0 0 1 1153.13 322)">Light</text>
  <text style="stroke:none;fill:black;font-family:sans-serif;font-size:13;text-anchor:middle;" transform="matrix(1 0 0 1 1449.84 322)">Regular</text>
  <text style="stroke:none;fill:black;font-family:sans-serif;font-size:13;text-anchor:middle;" transform="matrix(1 0 0 1 1746.56 322)">Medium</text>
  <text style="stroke:none;fill:black;font-family:sans-serif;font-size:13;text-anchor:middle;" transform="matrix(1 0 0 1 2043.27 322)">Semibold</text>
  <text style="stroke:none;fill:black;font-family:sans-serif;font-size:13;text-anchor:middle;" transform="matrix(1 0 0 1 2339.98 322)">Bold</text>
  <text style="stroke:none;fill:black;font-family:sans-serif;font-size:13;text-anchor:middle;" transform="matrix(1 0 0 1 2636.69 322)">Heavy</text>
  <text style="stroke:none;fill:black;font-family:sans-serif;font-size:13;text-anchor:middle;" transform="matrix(1 0 0 1 2933.4 322)">Black</text>
  <line style="fill:none;stroke:black;opacity:1;stroke-width:0.5;" x1="263" x2="3036" y1="1903" y2="1903"/>
  <g transform="matrix(0.2 0 0 0.2 263 1933)">
   <path d="m46.2402 4.15039c21.7773 0 39.4531-17.627 39.4531-39.4043s-17.6758-39.4043-39.4531-39.4043c-21.7285 0-39.4043 17.627-39.4043 39.4043s17.6758 39.4043 39.4043 39.4043Zm0-7.42188c-17.6758 0-31.9336-14.3066-31.9336-31.9824s14.2578-31.9824 31.9336-31.9824 31.9824 14.3066 31.9824 31.9824-14.3066 31.9824-31.9824 31.9824Zm3.61328-17.7734v-28.4668c0-2.24609-1.46484-3.75977-3.71094-3.75977-2.14844 0-3.61328 1.51367-3.61328 3.75977v28.4668c0 2.19727 1.46484 3.71094 3.61328 3.71094 2.24609 0 3.71094-1.51367 3.71094-3.71094Zm-17.8223-10.5957h28.418c2.19727 0 3.71094-1.46484 3.71094-3.61328 0-2.19727-1.51367-3.71094-3.71094-3.71094h-28.418c-2.24609 0-3.75977 1.51367-3.75977 3.71094 0 2.14844 1.51367 3.61328 3.75977 3.61328Z"/>
  </g>
  <g transform="matrix(0.2 0 0 0.2 281.506 1933)">
   <path d="m58.5449 14.5508c27.4902 0 49.8047-22.3145 49.8047-49.8047s-22.3145-49.8047-49.8047-49.8047-49.8047 22.3145-49.8047 49.8047 22.3145 49.8047 49.8047 49.8047Zm0-8.30078c-22.9492 0-41.5039-18.5547-41.5039-41.5039s18.5547-41.5039 41.5039-41.5039 41.5039 18.5547 41.5039 41.5039-18.5547 41.5039-41.5039 41.5039Zm4.05273-23.0957v-36.9141c0-2.49023-1.70898-4.19922-4.15039-4.19922-2.39258 0-4.05273 1.70898-4.05273 4.19922v36.9141c0 2.44141 1.66016 4.15039 4.05273 4.15039 2.44141 0 4.15039-1.66016 4.15039-4.15039Zm-22.5586-14.4043h36.9629c2.44141 0 4.15039-1.61133 4.15039-4.00391 0-2.44141-1.70898-4.15039-4.15039-4.15039h-36.9629c-2.49023 0-4.15039 1.70898-4.15039 4.15039 0 2.39258 1.66016 4.00391 4.15039 4.00391Z"/>
  </g>
  <g transform="matrix(0.2 0 0 0.2 304.924 1933)">
   <path d="m74.8535 28.3203c35.1074 0 63.623-28.4668 63.623-63.5742s-28.5156-63.623-63.623-63.623-63.5742 28.5156-63.5742 63.623 28.4668 63.5742 63.5742 63.5742Zm0-9.08203c-30.127 0-54.4922-24.3652-54.4922-54.4922s24.3652-54.4922 54.4922-54.4922 54.4922 24.3652 54.4922 54.4922-24.3652 54.4922-54.4922 54.4922Zm4.44336-30.3223v-48.4863c0-2.73438-1.85547-4.63867-4.54102-4.63867-2.58789 0-4.44336 1.9043-4.44336 4.63867v48.4863c0 2.68555 1.85547 4.58984 4.44336 4.58984 2.68555 0 4.54102-1.85547 4.54102-4.58984Zm-28.7109-19.7754h48.4863c2.68555 0 4.58984-1.80664 4.58984-4.39453 0-2.73438-1.85547-4.58984-4.58984-4.58984h-48.4863c-2.73438 0-4.58984 1.85547-4.58984 4.58984 0 2.58789 1.85547 4.39453 4.58984 4.39453Z"/>
  </g>
  <text style="stroke:none;fill:black;font-family:sans-serif;font-size:13;font-weight:bold;" transform="matrix(1 0 0 1 263 1953)">Design Variations</text>
  <text style="stroke:none;fill:black;font-family:sans-serif;font-size:13;" transform="matrix(1 0 0 1 263 1971)">Symbols are supported in up to nine weights and three scales.</text>
  <text style="stroke:none;fill:black;font-family:sans-serif;font-size:13;" transform="matrix(1 0 0 1 263 1989)">For optimal layout with text and other symbols, vertically align</text>
  <text style="stroke:none;fill:black;font-family:sans-serif;font-size:13;" transform="matrix(1 0 0 1 263 2007)">symbols with the adjacent text.</text>
  <line style="fill:none;stroke:#00AEEF;stroke-width:0.5;opacity:1.0;" x1="776" x2="776" y1="1919" y2="1933"/>
  <g transform="matrix(0.2 0 0 0.2 776 1933)">
   <path d="m16.5527 0.78125c2.58789 0 3.85742-0.976562 4.78516-3.71094l20.5566-57.5195h0.244141l20.6055 57.5195c0.927734 2.73438 2.19727 3.71094 4.73633 3.71094 2.58789 0 4.24805-1.5625 4.24805-4.00391 0-0.830078-0.146484-1.61133-0.537109-2.63672l-22.9004-60.9863c-1.12305-2.97852-3.125-4.49219-6.25-4.49219-3.02734 0-5.07812 1.46484-6.15234 4.44336l-22.9004 61.084c-0.390625 1.02539-0.537109 1.80664-0.537109 2.63672 0 2.44141 1.5625 3.95508 4.10156 3.95508Zm10.2051-20.9473h30.6641c2.00195 0 3.66211-1.66016 3.66211-3.66211 0-2.05078-1.66016-3.66211-3.66211-3.66211h-30.6641c-2.00195 0-3.66211 1.61133-3.66211 3.66211 0 2.00195 1.66016 3.66211 3.66211 3.66211Z"/>
  </g>
  <line style="fill:none;stroke:#00AEEF;stroke-width:0.5;opacity:1.0;" x1="792.836" x2="792.836" y1="1919" y2="1933"/>
  <text style="stroke:none;fill:black;font-family:sans-serif;font-size:13;font-weight:bold;" transform="matrix(1 0 0 1 776 1953)">Margins</text>
  <text style="stroke:none;fill:black;font-family:sans-serif;font-size:13;" transform="matrix(1 0 0 1 776 1971)">Leading and trailing margins on the left and right side of each symbol</text>
  <text style="stroke:none;fill:black;font-family:sans-serif;font-size:13;" transform="matrix(1 0 0 1 776 1989)">can be adjusted by modifying the x-location of the margin guidelines.</text>
  <text style="stroke:none;fill:black;font-family:sans-serif;font-size:13;" transform="matrix(1 0 0 1 776 2007)">Modifications are automatically applied proportionally to all</text>
  <text style="stroke:none;fill:black;font-family:sans-serif;font-size:13;" transform="matrix(1 0 0 1 776 2025)">scales and weights.</text>
  <g transform="matrix(0.2 0 0 0.2 1289 1933)">
   <path d="m14.209 13.1348 7.86133 7.86133c4.29688 4.39453 9.32617 4.10156 13.8672-1.02539l60.6934-68.2129-4.88281-4.88281-60.2539 67.6758c-1.80664 1.95312-3.4668 2.44141-5.81055 0.0976562l-5.17578-5.12695c-2.29492-2.29492-1.80664-3.95508 0.195312-5.81055l67.4805-62.1582-4.88281-4.83398-68.0664 62.5977c-4.98047 4.58984-5.32227 9.47266-1.02539 13.8184Zm44.873-97.4609c-2.05078 2.00195-2.24609 4.88281-1.07422 6.78711 1.12305 1.80664 3.4668 3.02734 6.5918 2.24609 5.85938-1.66016 12.5977-2.39258 18.8965 0.927734l-2.68555 7.12891c-1.61133 4.00391-0.732422 6.88477 1.70898 9.42383l10.2539 10.3027c2.34375 2.39258 4.54102 2.44141 7.08008 1.95312l4.44336-0.732422 2.58789 2.53906-0.195312 2.24609c-0.0976562 2.29492 0.537109 4.29688 2.7832 6.49414l3.36914 3.32031c2.29492 2.29492 5.51758 2.49023 7.8125 0.195312l12.9883-13.0371c2.29492-2.34375 2.14844-5.37109-0.195312-7.66602l-3.41797-3.41797c-2.19727-2.19727-4.05273-3.02734-6.34766-2.88086l-2.34375 0.244141-2.44141-2.44141 1.02539-4.6875c0.634766-2.73438-0.244141-4.98047-2.88086-7.61719l-11.2793-11.1816c-12.9395-12.8418-35.5957-11.0352-46.6797-0.146484Zm7.08008 2.05078c8.78906-6.39648 25.9766-5.66406 33.6914 1.95312l12.3047 12.207c1.02539 1.02539 1.2207 1.80664 0.927734 3.32031l-1.46484 6.64062 6.73828 6.68945 4.39453-0.244141c1.12305-0.0488281 1.51367 0.0488281 2.34375 0.878906l2.53906 2.49023-10.8398 10.8398-2.49023-2.49023c-0.830078-0.878906-0.976562-1.2207-0.927734-2.39258l0.292969-4.3457-6.68945-6.73828-6.83594 1.17188c-1.41602 0.292969-2.05078 0.195312-3.17383-0.878906l-8.93555-8.88672c-1.07422-1.02539-1.17188-1.70898-0.488281-3.36914l4.58984-11.4746c-6.10352-6.34766-17.041-7.51953-25.5859-4.58984-0.683594 0.244141-0.927734-0.390625-0.390625-0.78125Z"/>
  </g>
  <text style="stroke:none;fill:black;font-family:sans-serif;font-size:13;font-weight:bold;" transform="matrix(1 0 0 1 1289 1953)">Exporting</text>
  <text style="stroke:none;fill:black;font-family:sans-serif;font-size:13;" transform="matrix(1 0 0 1 1289 1971)">Symbols should be outlined when exporting to ensure the</text>
  <text style="stroke:none;fill:black;font-family:sans-serif;font-size:13;" transform="matrix(1 0 0 1 1289 1989)">design is preserved when submitting to Xcode.</text>
  <text id="template-version" style="stroke:none;fill:black;font-family:sans-serif;font-size:13;text-anchor:end;" transform="matrix(1 0 0 1 3036 1933)">Template v.6.0</text>
  <text style="stroke:none;fill:black;font-family:sans-serif;font-size:13;text-anchor:end;" transform="matrix(1 0 0 1 3036 1951)">Requires Xcode 16 or greater</text>
  <text id="descriptive-name" style="stroke:none;fill:black;font-family:sans-serif;font-size:13;text-anchor:end;" transform="matrix(1 0 0 1 3036 1969)">Generated from Gravity</text>
  <text style="stroke:none;fill:black;font-family:sans-serif;font-size:13;text-anchor:end;" transform="matrix(1 0 0 1 3036 1987)">Typeset at 100.0 points</text>
  <text style="stroke:none;fill:black;font-family:sans-serif;font-size:13;" transform="matrix(1 0 0 1 263 726)">Small</text>
  <text style="stroke:none;fill:black;font-family:sans-serif;font-size:13;" transform="matrix(1 0 0 1 263 1156)">Medium</text>
  <text style="stroke:none;fill:black;font-family:sans-serif;font-size:13;" transform="matrix(1 0 0 1 263 1586)">Large</text>
 </g>
 <g id="Guides">
  <g id="H-reference" style="fill:#27AAE1;stroke:none;" transform="matrix(1 0 0 1 339 696)">
   <path d="M0.993654 0L3.63775 0L29.3281-67.1323L30.0303-67.1323L30.0303-70.459L28.1226-70.459ZM11.6885-24.4799L46.9815-24.4799L46.2315-26.7285L12.4385-26.7285ZM55.1196 0L57.7637 0L30.6382-70.459L29.4326-70.459L29.4326-67.1323Z"/>
  </g>
  <line id="Baseline-S" style="fill:none;stroke:#27AAE1;opacity:1;stroke-width:0.5;" x1="263" x2="3036" y1="696" y2="696"/>
  <line id="Capline-S" style="fill:none;stroke:#27AAE1;opacity:1;stroke-width:0.5;" x1="263" x2="3036" y1="625.541" y2="625.541"/>
  <g id="H-reference" style="fill:#27AAE1;stroke:none;" transform="matrix(1 0 0 1 339 1126)">
   <path d="M0.993654 0L3.63775 0L29.3281-67.1323L30.0303-67.1323L30.0303-70.459L28.1226-70.459ZM11.6885-24.4799L46.9815-24.4799L46.2315-26.7285L12.4385-26.7285ZM55.1196 0L57.7637 0L30.6382-70.459L29.4326-70.459L29.4326-67.1323Z"/>
  </g>
  <line id="Baseline-M" style="fill:none;stroke:#27AAE1;opacity:1;stroke-width:0.5;" x1="263" x2="3036" y1="1126" y2="1126"/>
  <line id="Capline-M" style="fill:none;stroke:#27AAE1;opacity:1;stroke-width:0.5;" x1="263" x2="3036" y1="1055.54" y2="1055.54"/>
  <g id="H-reference" style="fill:#27AAE1;stroke:none;" transform="matrix(1 0 0 1 339 1556)">
   <path d="M0.993654 0L3.63775 0L29.3281-67.1323L30.0303-67.1323L30.0303-70.459L28.1226-70.459ZM11.6885-24.4799L46.9815-24.4799L46.2315-26.7285L12.4385-26.7285ZM55.1196 0L57.7637 0L30.6382-70.459L29.4326-70.459L29.4326-67.1323Z"/>
  </g>
  <line id="Baseline-L" style="fill:none;stroke:#27AAE1;opacity:1;stroke-width:0.5;" x1="263" x2="3036" y1="1556" y2="1556"/>
  <line id="Capline-L" style="fill:none;stroke:#27AAE1;opacity:1;stroke-width:0.5;" x1="263" x2="3036" y1="1485.54" y2="1485.54"/>
  <line id="right-margin-Black-S" style="fill:none;stroke:#00AEEF;stroke-width:0.5;opacity:1.0;" x1="2980.81" x2="2980.81" y1="600.785" y2="720.121"/>
  <line id="left-margin-Black-S" style="fill:none;stroke:#00AEEF;stroke-width:0.5;opacity:1.0;" x1="2885.99" x2="2885.99" y1="600.785" y2="720.121"/>
  <line id="right-margin-Regular-S" style="fill:none;stroke:#00AEEF;stroke-width:0.5;opacity:1.0;" x1="1493.96" x2="1493.96" y1="600.785" y2="720.121"/>
  <line id="left-margin-Regular-S" style="fill:none;stroke:#00AEEF;stroke-width:0.5;opacity:1.0;" x1="1405.73" x2="1405.73" y1="600.785" y2="720.121"/>
  <line id="right-margin-Ultralight-S" style="fill:none;stroke:#00AEEF;stroke-width:0.5;opacity:1.0;" x1="601.625" x2="601.625" y1="600.785" y2="720.121"/>
  <line id="left-margin-Ultralight-S" style="fill:none;stroke:#00AEEF;stroke-width:0.5;opacity:1.0;" x1="517.797" x2="517.797" y1="600.785" y2="720.121"/>
 </g>
 <g id="Symbols">
  <g id="Black-S" transform="matrix(1 0 0 1 2885.99 696)">
   <path class="monochrome-0 multicolor-0:tintColor hierarchical-0:primary SFSymbolsPreviewWireframe" d="M21.85-25.062C22.72-25.062 23.56-25.319 24.28-25.8C25-26.281 25.56-26.964 25.9-27.763C26.23-28.563 26.31-29.442 26.14-30.291C25.98-31.14 25.56-31.919 24.95-32.531C24.34-33.143 23.56-33.56 22.71-33.728C21.86-33.897 20.98-33.811 20.18-33.479C19.38-33.148 18.7-32.588 18.22-31.868C17.74-31.149 17.48-30.303 17.48-29.437C17.48-28.278 17.94-27.165 18.76-26.345C19.58-25.525 20.69-25.064 21.85-25.062ZM21.85-31.625C22.29-31.625 22.71-31.497 23.07-31.256C23.43-31.016 23.71-30.674 23.87-30.275C24.04-29.875 24.08-29.435 24-29.011C23.91-28.586 23.71-28.197 23.4-27.891C23.09-27.585 22.7-27.376 22.28-27.292C21.86-27.208 21.42-27.251 21.02-27.417C20.62-27.582 20.28-27.862 20.03-28.222C19.79-28.582 19.67-29.005 19.67-29.437C19.67-30.017 19.9-30.573 20.31-30.983C20.72-31.394 21.27-31.624 21.85-31.625ZM74.35-23.969C73.49-23.969 72.64-23.712 71.92-23.231C71.2-22.751 70.64-22.067 70.31-21.268C69.98-20.469 69.89-19.589 70.06-18.74C70.23-17.892 70.65-17.112 71.26-16.5C71.87-15.888 72.65-15.472 73.5-15.303C74.35-15.134 75.23-15.221 76.03-15.552C76.83-15.883 77.51-16.444 77.99-17.163C78.47-17.883 78.73-18.728 78.73-19.594C78.73-20.754 78.27-21.866 77.45-22.686C76.63-23.506 75.51-23.968 74.35-23.969ZM74.35-17.406C73.92-17.406 73.5-17.535 73.14-17.775C72.78-18.015 72.5-18.357 72.33-18.757C72.17-19.156 72.12-19.596 72.21-20.021C72.29-20.445 72.5-20.835 72.81-21.141C73.11-21.446 73.5-21.655 73.93-21.739C74.35-21.824 74.79-21.78 75.19-21.615C75.59-21.449 75.93-21.169 76.17-20.809C76.41-20.449 76.54-20.026 76.54-19.594C76.54-19.014 76.31-18.458 75.9-18.048C75.49-17.638 74.93-17.407 74.35-17.406ZM81.81-2.729C81.35-3.373 70.27-18.5 47.01-18.5C23.75-18.5 12.67-3.373 12.21-2.729C12.13-2.612 12.07-2.48 12.04-2.34C12.01-2.2 12-2.056 12.03-1.914C12.05-1.772 12.1-1.637 12.18-1.515C12.25-1.393 12.35-1.287 12.47-1.204C12.59-1.12 12.72-1.061 12.86-1.028C13-0.996 13.14-0.992 13.28-1.015C13.43-1.039 13.56-1.09 13.68-1.166C13.8-1.242 13.91-1.341 13.99-1.458C15.21-3.015 16.58-4.447 18.08-5.732L17.97-5.559L21.25-3.371C21.39-3.278 21.54-3.219 21.71-3.196C21.87-3.174 22.04-3.191 22.2-3.244L25.48-4.338C25.64-4.391 25.79-4.482 25.91-4.602L26.52-5.217L29.09-4.362L33.4-2.209C33.55-2.133 33.72-2.094 33.89-2.094C34.05-2.094 34.22-2.133 34.37-2.209L36.56-3.303C36.74-3.394 36.9-3.533 37-3.706C37.11-3.879 37.17-4.078 37.17-4.281L37.17-6.469C37.17-6.586 37.15-6.703 37.11-6.815L36.02-10.096C35.94-10.314 35.8-10.503 35.62-10.637C35.43-10.772 35.21-10.844 34.98-10.844L33.47-10.844L31.98-13.819C36.81-15.495 41.89-16.338 47.01-16.312C48.71-16.311 50.41-16.218 52.1-16.035L51.42-13.296C51.37-13.113 51.37-12.921 51.42-12.739C51.48-12.557 51.57-12.391 51.71-12.258L53.89-10.07C54.01-9.95 54.16-9.86 54.32-9.807L57.08-8.885L58-6.123C58.06-5.948 58.16-5.791 58.3-5.666C58.43-5.541 58.6-5.452 58.78-5.408L63.15-4.314C63.4-4.252 63.67-4.281 63.91-4.397L65.39-5.138L67.02-3.508C67.1-3.425 67.2-3.356 67.3-3.303L69.49-2.209C69.64-2.133 69.81-2.094 69.98-2.094C70.1-2.094 70.21-2.113 70.32-2.15L73.61-3.244C73.84-3.321 74.04-3.472 74.17-3.675L75.68-5.943C77.28-4.601 78.74-3.098 80.03-1.457C80.2-1.223 80.45-1.065 80.74-1.019C81.02-0.972 81.31-1.04 81.55-1.208C81.78-1.376 81.94-1.631 81.99-1.916C82.04-2.201 81.97-2.493 81.81-2.729ZM31.81-9.261C31.9-9.079 32.04-8.926 32.22-8.82C32.39-8.713 32.59-8.656 32.79-8.656L34.19-8.656L34.98-6.291L34.98-4.957L33.89-4.41L30-6.353C29.95-6.377 29.91-6.396 29.86-6.412L26.57-7.506C26.38-7.57 26.18-7.58 25.98-7.533C25.78-7.487 25.6-7.386 25.46-7.242L24.54-6.331L22.02-5.488L19.67-7.055C22.78-9.524 26.24-11.54 29.92-13.042L31.81-9.261ZM72.56-5.2L70.06-4.369L68.44-5.181L66.38-7.242C66.21-7.404 66.01-7.512 65.78-7.548C65.55-7.585 65.32-7.55 65.11-7.447L63.29-6.534L59.89-7.384L58.98-10.096C58.93-10.257 58.84-10.404 58.72-10.524C58.6-10.644 58.45-10.734 58.29-10.787L55.26-11.8L53.69-13.367L54.29-15.751C61.46-14.66 68.24-11.764 73.98-7.334L72.56-5.2ZM46.52-12.847L43.24-15.035C43.1-15.128 42.95-15.188 42.78-15.21C42.61-15.232 42.45-15.216 42.29-15.162L39.01-14.068C38.85-14.015 38.7-13.925 38.58-13.805L37.49-12.711C37.32-12.548 37.22-12.339 37.18-12.113C37.14-11.886 37.18-11.654 37.28-11.448L38.38-9.261C38.44-9.132 38.53-9.018 38.64-8.924C38.75-8.83 38.87-8.758 39.01-8.713L42.29-7.619C42.4-7.582 42.52-7.563 42.63-7.562L44.82-7.562C45.05-7.562 45.28-7.635 45.46-7.769C45.65-7.903 45.79-8.092 45.86-8.31L46.95-11.591C47.03-11.819 47.03-12.065 46.95-12.292C46.87-12.519 46.72-12.714 46.52-12.847ZM44.03-9.75L42.81-9.75L40.13-10.644L39.59-11.722L39.94-12.075L42.47-12.918L44.61-11.491L44.03-9.75ZM40.57-36.497C40.48-36.317 40.44-36.115 40.45-35.914C40.47-35.713 40.54-35.52 40.66-35.357L49.41-23.326C49.51-23.186 49.64-23.073 49.79-22.994C49.95-22.916 50.12-22.875 50.29-22.875C50.46-22.875 50.63-22.916 50.79-22.994C50.94-23.073 51.07-23.186 51.18-23.326L59.93-35.357C60.04-35.52 60.12-35.713 60.13-35.914C60.15-36.115 60.11-36.317 60.02-36.496C59.92-36.676 59.78-36.827 59.61-36.932C59.44-37.038 59.24-37.094 59.04-37.094L54.67-37.094L54.67-61.156C54.67-61.446 54.55-61.725 54.35-61.93C54.14-62.135 53.86-62.25 53.57-62.25C53.28-62.25 53-62.135 52.8-61.93C52.59-61.725 52.48-61.446 52.48-61.156L52.48-36C52.48-35.856 52.51-35.714 52.56-35.581C52.62-35.449 52.7-35.328 52.8-35.226C52.9-35.125 53.02-35.044 53.15-34.989C53.29-34.934 53.43-34.906 53.57-34.906L56.89-34.906L50.29-25.828L43.69-34.906L47.01-34.906C47.15-34.906 47.3-34.934 47.43-34.989C47.56-35.044 47.68-35.125 47.78-35.226C47.89-35.328 47.97-35.449 48.02-35.581C48.08-35.714 48.1-35.856 48.1-36L48.1-61.156C48.1-61.446 47.99-61.725 47.78-61.93C47.58-62.135 47.3-62.25 47.01-62.25C46.72-62.25 46.44-62.135 46.24-61.93C46.03-61.725 45.92-61.446 45.92-61.156L45.92-37.094L41.54-37.094C41.34-37.094 41.14-37.038 40.97-36.933C40.8-36.827 40.66-36.676 40.57-36.497ZM30.81-32.076C30.91-31.936 31.05-31.823 31.2-31.744C31.35-31.666 31.52-31.625 31.7-31.625C31.87-31.625 32.04-31.666 32.19-31.744C32.35-31.823 32.48-31.936 32.58-32.076L41.33-44.107C41.45-44.27 41.52-44.463 41.54-44.664C41.55-44.865 41.51-45.067 41.42-45.246C41.33-45.426 41.19-45.577 41.02-45.682C40.85-45.788 40.65-45.844 40.45-45.844L36.07-45.844L36.07-67.719C36.07-68.009 35.96-68.287 35.75-68.492C35.55-68.697 35.27-68.812 34.98-68.812C34.69-68.812 34.41-68.697 34.21-68.492C34-68.287 33.88-68.009 33.88-67.719L33.88-44.75C33.88-44.606 33.91-44.464 33.97-44.331C34.02-44.199 34.1-44.078 34.21-43.976C34.31-43.875 34.43-43.794 34.56-43.739C34.69-43.684 34.84-43.656 34.98-43.656L38.3-43.656L31.7-34.578L25.1-43.656L28.42-43.656C28.56-43.656 28.7-43.684 28.83-43.739C28.97-43.794 29.09-43.875 29.19-43.976C29.29-44.078 29.37-44.199 29.43-44.331C29.48-44.464 29.51-44.606 29.51-44.75L29.51-69.906C29.51-70.196 29.39-70.475 29.19-70.68C28.98-70.885 28.71-71 28.42-71C28.13-71 27.85-70.885 27.64-70.68C27.44-70.475 27.32-70.196 27.32-69.906L27.32-45.844L22.95-45.844C22.75-45.844 22.55-45.788 22.38-45.682C22.2-45.577 22.06-45.426 21.97-45.246C21.88-45.067 21.84-44.865 21.86-44.664C21.87-44.463 21.94-44.27 22.06-44.107L30.81-32.076ZM68-32.076C68.1-31.936 68.23-31.823 68.39-31.744C68.54-31.666 68.71-31.625 68.89-31.625C69.06-31.625 69.23-31.666 69.38-31.744C69.54-31.823 69.67-31.936 69.77-32.076L78.52-44.107C78.64-44.27 78.71-44.463 78.73-44.664C78.74-44.865 78.7-45.067 78.61-45.246C78.52-45.426 78.38-45.577 78.21-45.682C78.03-45.788 77.84-45.844 77.64-45.844L73.26-45.844L73.26-63.344C73.26-63.634 73.14-63.912 72.94-64.117C72.73-64.322 72.46-64.438 72.17-64.438C71.88-64.438 71.6-64.322 71.39-64.117C71.19-63.912 71.07-63.634 71.07-63.344L71.07-44.75C71.07-44.606 71.1-44.464 71.16-44.331C71.21-44.199 71.29-44.078 71.39-43.976C71.49-43.875 71.61-43.794 71.75-43.739C71.88-43.684 72.02-43.656 72.17-43.656L75.49-43.656L68.88-34.578L62.28-43.656L65.6-43.656C65.75-43.656 65.89-43.684 66.02-43.739C66.16-43.794 66.28-43.875 66.38-43.976C66.48-44.078 66.56-44.199 66.61-44.331C66.67-44.464 66.7-44.606 66.7-44.75L66.7-69.906C66.7-70.196 66.58-70.475 66.38-70.68C66.17-70.885 65.89-71 65.6-71C65.31-71 65.04-70.885 64.83-70.68C64.63-70.475 64.51-70.196 64.51-69.906L64.51-45.844L60.13-45.844C59.93-45.844 59.74-45.788 59.56-45.682C59.39-45.577 59.25-45.426 59.16-45.246C59.07-45.067 59.03-44.865 59.05-44.664C59.06-44.463 59.13-44.27 59.25-44.107L68-32.076Z"/>
  </g>
  <g id="Regular-S" transform="matrix(1 0 0 1 1405.73 696)">
   <path class="monochrome-0 multicolor-0:tintColor hierarchical-0:primary SFSymbolsPreviewWireframe" d="M15.11-24.062C15.98-24.062 16.82-24.319 17.54-24.8C18.26-25.281 18.82-25.964 19.16-26.763C19.49-27.563 19.57-28.442 19.4-29.291C19.24-30.14 18.82-30.919 18.21-31.531C17.6-32.143 16.82-32.56 15.97-32.728C15.12-32.897 14.24-32.811 13.44-32.479C12.64-32.148 11.96-31.588 11.48-30.868C11-30.149 10.74-29.303 10.74-28.437C10.74-27.278 11.2-26.165 12.02-25.345C12.84-24.525 13.95-24.064 15.11-24.062ZM15.11-30.625C15.55-30.625 15.97-30.497 16.33-30.256C16.69-30.016 16.97-29.674 17.13-29.275C17.3-28.875 17.34-28.435 17.26-28.011C17.17-27.586 16.97-27.197 16.66-26.891C16.35-26.585 15.96-26.376 15.54-26.292C15.12-26.208 14.68-26.251 14.28-26.417C13.88-26.582 13.54-26.862 13.29-27.222C13.05-27.582 12.93-28.005 12.93-28.437C12.93-29.017 13.16-29.573 13.57-29.983C13.98-30.394 14.53-30.624 15.11-30.625ZM67.61-22.969C66.75-22.969 65.9-22.712 65.18-22.231C64.46-21.751 63.9-21.067 63.57-20.268C63.24-19.469 63.15-18.589 63.32-17.74C63.49-16.892 63.91-16.112 64.52-15.5C65.13-14.888 65.91-14.472 66.76-14.303C67.61-14.134 68.49-14.221 69.29-14.552C70.09-14.883 70.77-15.444 71.25-16.163C71.73-16.883 71.99-17.728 71.99-18.594C71.99-19.754 71.53-20.866 70.71-21.686C69.89-22.506 68.77-22.968 67.61-22.969ZM67.61-16.406C67.18-16.406 66.76-16.535 66.4-16.775C66.04-17.015 65.76-17.357 65.59-17.757C65.43-18.156 65.38-18.596 65.47-19.021C65.55-19.445 65.76-19.835 66.07-20.141C66.37-20.446 66.76-20.655 67.19-20.739C67.61-20.824 68.05-20.78 68.45-20.615C68.85-20.449 69.19-20.169 69.43-19.809C69.67-19.449 69.8-19.026 69.8-18.594C69.8-18.014 69.57-17.458 69.16-17.048C68.75-16.638 68.19-16.407 67.61-16.406ZM75.07-1.729C74.61-2.373 63.53-17.5 40.27-17.5C17.01-17.5 5.93-2.373 5.47-1.729C5.39-1.612 5.33-1.48 5.3-1.34C5.27-1.2 5.26-1.056 5.29-0.914C5.31-0.772 5.36-0.637 5.44-0.515C5.51-0.393 5.61-0.287 5.73-0.204C5.85-0.12 5.98-0.061 6.12-0.028C6.26 0.004 6.4 0.008 6.54-0.015C6.69-0.039 6.82-0.09 6.94-0.166C7.06-0.242 7.17-0.341 7.25-0.458C8.47-2.015 9.84-3.447 11.34-4.732L11.23-4.559L14.51-2.371C14.65-2.278 14.8-2.219 14.97-2.196C15.13-2.174 15.3-2.191 15.46-2.244L18.74-3.338C18.9-3.391 19.05-3.482 19.17-3.602L19.78-4.217L22.35-3.362L26.66-1.209C26.81-1.133 26.98-1.094 27.15-1.094C27.31-1.094 27.48-1.133 27.63-1.209L29.82-2.303C30-2.394 30.16-2.533 30.26-2.706C30.37-2.879 30.43-3.078 30.43-3.281L30.43-5.469C30.43-5.586 30.41-5.703 30.37-5.815L29.28-9.096C29.2-9.314 29.06-9.503 28.88-9.637C28.69-9.772 28.47-9.844 28.24-9.844L26.73-9.844L25.24-12.819C30.07-14.495 35.15-15.338 40.27-15.312C41.97-15.311 43.67-15.218 45.36-15.035L44.68-12.296C44.63-12.113 44.63-11.921 44.68-11.739C44.74-11.557 44.83-11.391 44.97-11.258L47.15-9.07C47.27-8.95 47.42-8.86 47.58-8.807L50.34-7.885L51.26-5.123C51.32-4.948 51.42-4.791 51.56-4.666C51.69-4.541 51.86-4.452 52.04-4.408L56.41-3.314C56.66-3.252 56.93-3.281 57.17-3.397L58.65-4.138L60.28-2.508C60.36-2.425 60.46-2.356 60.56-2.303L62.75-1.209C62.9-1.133 63.07-1.094 63.24-1.094C63.36-1.094 63.47-1.113 63.58-1.15L66.87-2.244C67.1-2.321 67.3-2.472 67.43-2.675L68.94-4.943C70.54-3.601 72-2.098 73.29-0.457C73.46-0.223 73.71-0.065 74-0.019C74.28 0.028 74.57-0.04 74.81-0.208C75.04-0.376 75.2-0.631 75.25-0.916C75.3-1.201 75.23-1.493 75.07-1.729ZM25.07-8.261C25.16-8.079 25.3-7.926 25.48-7.82C25.65-7.713 25.85-7.656 26.05-7.656L27.45-7.656L28.24-5.291L28.24-3.957L27.15-3.41L23.26-5.353C23.21-5.377 23.17-5.396 23.12-5.412L19.83-6.506C19.64-6.57 19.44-6.58 19.24-6.533C19.04-6.487 18.86-6.386 18.72-6.242L17.8-5.331L15.28-4.488L12.93-6.055C16.05-8.524 19.5-10.54 23.18-12.042L25.07-8.261ZM65.82-4.2L63.32-3.369L61.7-4.181L59.64-6.242C59.47-6.404 59.27-6.512 59.04-6.548C58.81-6.585 58.58-6.55 58.37-6.447L56.55-5.534L53.15-6.384L52.24-9.096C52.19-9.257 52.1-9.404 51.98-9.524C51.86-9.644 51.71-9.734 51.55-9.787L48.52-10.8L46.95-12.367L47.55-14.751C54.72-13.66 61.5-10.764 67.24-6.334L65.82-4.2ZM39.78-11.847L36.5-14.035C36.36-14.128 36.21-14.188 36.04-14.21C35.87-14.232 35.71-14.216 35.55-14.162L32.27-13.068C32.11-13.015 31.96-12.925 31.84-12.805L30.75-11.711C30.58-11.548 30.48-11.339 30.44-11.113C30.4-10.886 30.44-10.654 30.54-10.448L31.64-8.261C31.7-8.132 31.79-8.018 31.9-7.924C32.01-7.83 32.13-7.758 32.27-7.713L35.55-6.619C35.66-6.582 35.78-6.563 35.9-6.562L38.08-6.562C38.31-6.562 38.54-6.635 38.72-6.769C38.91-6.903 39.05-7.092 39.12-7.31L40.21-10.591C40.29-10.819 40.29-11.065 40.21-11.292C40.13-11.519 39.98-11.714 39.78-11.847ZM37.29-8.75L36.07-8.75L33.39-9.644L32.85-10.722L33.2-11.075L35.73-11.918L37.87-10.491L37.29-8.75ZM33.83-35.497C33.74-35.317 33.7-35.115 33.71-34.914C33.73-34.713 33.8-34.52 33.92-34.357L42.67-22.326C42.77-22.186 42.9-22.073 43.05-21.994C43.21-21.916 43.38-21.875 43.55-21.875C43.72-21.875 43.89-21.916 44.05-21.994C44.2-22.073 44.33-22.186 44.44-22.326L53.19-34.357C53.3-34.52 53.38-34.713 53.39-34.914C53.41-35.115 53.37-35.317 53.28-35.496C53.18-35.676 53.04-35.827 52.87-35.932C52.7-36.038 52.5-36.094 52.3-36.094L47.93-36.094L47.93-60.156C47.93-60.446 47.81-60.725 47.61-60.93C47.4-61.135 47.12-61.25 46.83-61.25C46.54-61.25 46.26-61.135 46.06-60.93C45.85-60.725 45.74-60.446 45.74-60.156L45.74-35C45.74-34.856 45.77-34.714 45.82-34.581C45.88-34.449 45.96-34.328 46.06-34.226C46.16-34.125 46.28-34.044 46.41-33.989C46.55-33.934 46.69-33.906 46.83-33.906L50.15-33.906L43.55-24.828L36.95-33.906L40.27-33.906C40.41-33.906 40.56-33.934 40.69-33.989C40.82-34.044 40.94-34.125 41.04-34.226C41.15-34.328 41.23-34.449 41.28-34.581C41.34-34.714 41.36-34.856 41.36-35L41.36-60.156C41.36-60.446 41.25-60.725 41.04-60.93C40.84-61.135 40.56-61.25 40.27-61.25C39.98-61.25 39.7-61.135 39.5-60.93C39.29-60.725 39.18-60.446 39.18-60.156L39.18-36.094L34.8-36.094C34.6-36.094 34.4-36.038 34.23-35.933C34.06-35.827 33.92-35.676 33.83-35.497ZM24.07-31.076C24.17-30.936 24.31-30.823 24.46-30.744C24.61-30.666 24.78-30.625 24.96-30.625C25.13-30.625 25.3-30.666 25.45-30.744C25.61-30.823 25.74-30.936 25.84-31.076L34.59-43.107C34.71-43.27 34.78-43.463 34.8-43.664C34.81-43.865 34.77-44.067 34.68-44.246C34.59-44.426 34.45-44.577 34.28-44.682C34.11-44.788 33.91-44.844 33.71-44.844L29.33-44.844L29.33-66.719C29.33-67.009 29.22-67.287 29.01-67.492C28.81-67.697 28.53-67.812 28.24-67.812C27.95-67.812 27.67-67.697 27.47-67.492C27.26-67.287 27.14-67.009 27.14-66.719L27.14-43.75C27.14-43.606 27.17-43.464 27.23-43.331C27.28-43.199 27.36-43.078 27.47-42.976C27.57-42.875 27.69-42.794 27.82-42.739C27.95-42.684 28.1-42.656 28.24-42.656L31.56-42.656L24.96-33.578L18.36-42.656L21.68-42.656C21.82-42.656 21.96-42.684 22.09-42.739C22.23-42.794 22.35-42.875 22.45-42.976C22.55-43.078 22.63-43.199 22.69-43.331C22.74-43.464 22.77-43.606 22.77-43.75L22.77-68.906C22.77-69.196 22.65-69.475 22.45-69.68C22.24-69.885 21.97-70 21.68-70C21.39-70 21.11-69.885 20.9-69.68C20.7-69.475 20.58-69.196 20.58-68.906L20.58-44.844L16.21-44.844C16.01-44.844 15.81-44.788 15.64-44.682C15.46-44.577 15.32-44.426 15.23-44.246C15.14-44.067 15.1-43.865 15.12-43.664C15.13-43.463 15.2-43.27 15.32-43.107L24.07-31.076ZM61.26-31.076C61.36-30.936 61.5-30.823 61.65-30.744C61.8-30.666 61.97-30.625 62.15-30.625C62.32-30.625 62.49-30.666 62.64-30.744C62.8-30.823 62.93-30.936 63.03-31.076L71.78-43.107C71.9-43.27 71.97-43.463 71.99-43.664C72-43.865 71.96-44.067 71.87-44.246C71.78-44.426 71.64-44.577 71.47-44.682C71.29-44.788 71.1-44.844 70.9-44.844L66.52-44.844L66.52-62.344C66.52-62.634 66.4-62.912 66.2-63.117C65.99-63.322 65.72-63.438 65.43-63.438C65.14-63.438 64.86-63.322 64.65-63.117C64.45-62.912 64.33-62.634 64.33-62.344L64.33-43.75C64.33-43.606 64.36-43.464 64.42-43.331C64.47-43.199 64.55-43.078 64.65-42.976C64.75-42.875 64.87-42.794 65.01-42.739C65.14-42.684 65.28-42.656 65.43-42.656L68.75-42.656L62.14-33.578L55.54-42.656L58.86-42.656C59.01-42.656 59.15-42.684 59.28-42.739C59.42-42.794 59.54-42.875 59.64-42.976C59.74-43.078 59.82-43.199 59.87-43.331C59.93-43.464 59.96-43.606 59.96-43.75L59.96-68.906C59.96-69.196 59.84-69.475 59.64-69.68C59.43-69.885 59.15-70 58.86-70C58.57-70 58.3-69.885 58.09-69.68C57.89-69.475 57.77-69.196 57.77-68.906L57.77-44.844L53.39-44.844C53.19-44.844 53-44.788 52.82-44.682C52.65-44.577 52.51-44.426 52.42-44.246C52.33-44.067 52.29-43.865 52.31-43.664C52.32-43.463 52.39-43.27 52.51-43.107L61.26-31.076Z"/>
  </g>
  <g id="Ultralight-S" transform="matrix(1 0 0 1 517.797 696)">
   <path class="monochrome-0 multicolor-0:tintColor hierarchical-0:primary SFSymbolsPreviewWireframe" d="M17.047-24.062C17.912-24.062 18.758-24.319 19.477-24.8C20.197-25.281 20.758-25.964 21.089-26.763C21.42-27.563 21.506-28.442 21.338-29.291C21.169-30.14 20.752-30.919 20.14-31.531C19.528-32.143 18.749-32.56 17.9-32.728C17.052-32.897 16.172-32.811 15.373-32.479C14.573-32.148 13.89-31.588 13.409-30.868C12.928-30.149 12.672-29.303 12.672-28.437C12.673-27.278 13.134-26.165 13.954-25.345C14.775-24.525 15.887-24.064 17.047-24.062ZM17.047-30.625C17.479-30.625 17.902-30.497 18.262-30.256C18.622-30.016 18.902-29.674 19.068-29.275C19.233-28.875 19.277-28.435 19.192-28.011C19.108-27.586 18.899-27.197 18.594-26.891C18.288-26.585 17.898-26.376 17.474-26.292C17.049-26.208 16.609-26.251 16.21-26.417C15.81-26.582 15.468-26.862 15.228-27.222C14.988-27.582 14.859-28.005 14.859-28.437C14.86-29.017 15.091-29.573 15.501-29.983C15.911-30.394 16.467-30.624 17.047-30.625ZM69.547-22.969C68.681-22.969 67.836-22.712 67.116-22.231C66.397-21.751 65.836-21.067 65.505-20.268C65.174-19.469 65.087-18.589 65.256-17.74C65.425-16.892 65.841-16.112 66.453-15.5C67.065-14.888 67.845-14.472 68.693-14.303C69.542-14.134 70.422-14.221 71.221-14.552C72.02-14.883 72.704-15.444 73.184-16.163C73.665-16.883 73.922-17.728 73.922-18.594C73.921-19.754 73.459-20.866 72.639-21.686C71.819-22.506 70.707-22.968 69.547-22.969ZM69.547-16.406C69.114-16.406 68.691-16.535 68.331-16.775C67.972-17.015 67.691-17.357 67.526-17.757C67.36-18.156 67.317-18.596 67.401-19.021C67.486-19.445 67.694-19.835 68-20.141C68.306-20.446 68.696-20.655 69.12-20.739C69.544-20.824 69.984-20.78 70.384-20.615C70.784-20.449 71.125-20.169 71.366-19.809C71.606-19.449 71.734-19.026 71.734-18.594C71.734-18.014 71.503-17.458 71.093-17.048C70.683-16.638 70.127-16.407 69.547-16.406ZM76.999-1.729C76.54-2.373 65.468-17.5 42.203-17.5C18.938-17.5 7.866-2.373 7.407-1.729C7.324-1.612 7.264-1.48 7.232-1.34C7.199-1.2 7.195-1.056 7.218-0.914C7.242-0.772 7.293-0.637 7.369-0.515C7.445-0.393 7.544-0.287 7.661-0.204C7.778-0.12 7.91-0.061 8.05-0.028C8.19 0.004 8.335 0.008 8.477-0.015C8.618-0.039 8.754-0.09 8.876-0.166C8.997-0.242 9.103-0.341 9.187-0.458C10.404-2.015 11.773-3.447 13.274-4.732L13.159-4.559L16.44-2.371C16.579-2.278 16.736-2.219 16.902-2.196C17.067-2.174 17.235-2.191 17.393-2.244L20.674-3.338C20.835-3.391 20.981-3.482 21.101-3.602L21.718-4.217L24.283-3.362L28.589-1.209C28.741-1.133 28.908-1.094 29.078-1.094C29.248-1.094 29.415-1.133 29.567-1.209L31.755-2.303C31.936-2.394 32.089-2.533 32.196-2.706C32.303-2.879 32.359-3.078 32.359-3.281L32.359-5.469C32.359-5.586 32.34-5.703 32.303-5.815L31.209-9.096C31.137-9.314 30.997-9.503 30.811-9.637C30.625-9.772 30.401-9.844 30.172-9.844L28.66-9.844L27.173-12.819C32.006-14.495 37.088-15.338 42.203-15.312C43.904-15.311 45.604-15.218 47.296-15.035L46.611-12.296C46.565-12.113 46.567-11.921 46.618-11.739C46.668-11.557 46.765-11.391 46.898-11.258L49.086-9.07C49.206-8.95 49.352-8.86 49.513-8.807L52.275-7.885L53.197-5.123C53.255-4.948 53.356-4.791 53.491-4.666C53.626-4.541 53.791-4.452 53.969-4.408L58.344-3.314C58.598-3.252 58.865-3.281 59.098-3.397L60.581-4.138L62.211-2.508C62.294-2.425 62.39-2.356 62.495-2.303L64.683-1.209C64.835-1.133 65.002-1.094 65.172-1.094C65.289-1.094 65.406-1.113 65.518-1.15L68.799-2.244C69.03-2.321 69.228-2.472 69.363-2.675L70.875-4.943C72.474-3.601 73.929-2.098 75.22-0.457C75.389-0.223 75.644-0.065 75.929-0.019C76.215 0.028 76.507-0.04 76.742-0.208C76.977-0.376 77.136-0.631 77.184-0.916C77.233-1.201 77.166-1.493 76.999-1.729ZM27.006-8.261C27.097-8.079 27.236-7.926 27.409-7.82C27.582-7.713 27.781-7.656 27.984-7.656L29.384-7.656L30.172-5.291L30.172-3.957L29.078-3.41L25.192-5.353C25.146-5.377 25.098-5.396 25.049-5.412L21.768-6.506C21.575-6.57 21.368-6.58 21.171-6.533C20.973-6.487 20.792-6.386 20.648-6.242L19.737-5.331L17.208-4.488L14.858-6.055C17.978-8.524 21.431-10.54 25.115-12.042L27.006-8.261ZM67.751-4.2L65.256-3.369L63.633-4.181L61.57-6.242C61.408-6.404 61.199-6.512 60.972-6.548C60.745-6.585 60.513-6.55 60.308-6.447L58.482-5.534L55.082-6.384L54.178-9.096C54.125-9.257 54.034-9.404 53.914-9.524C53.794-9.644 53.648-9.734 53.487-9.787L50.45-10.8L48.883-12.367L49.479-14.751C56.651-13.66 63.429-10.764 69.174-6.334L67.751-4.2ZM41.716-11.847L38.435-14.035C38.296-14.128 38.139-14.188 37.973-14.21C37.808-14.232 37.64-14.216 37.482-14.162L34.201-13.068C34.04-13.015 33.893-12.925 33.773-12.805L32.68-11.711C32.517-11.548 32.41-11.339 32.373-11.113C32.337-10.886 32.372-10.654 32.475-10.448L33.568-8.261C33.633-8.132 33.722-8.018 33.83-7.924C33.939-7.83 34.064-7.758 34.201-7.713L37.482-6.619C37.594-6.582 37.71-6.563 37.828-6.562L40.016-6.562C40.245-6.562 40.469-6.635 40.655-6.769C40.841-6.903 40.98-7.092 41.053-7.31L42.146-10.591C42.222-10.819 42.221-11.065 42.144-11.292C42.066-11.519 41.916-11.714 41.716-11.847ZM39.227-8.75L38.005-8.75L35.322-9.644L34.784-10.722L35.137-11.075L37.667-11.918L39.807-10.491L39.227-8.75ZM35.76-35.497C35.668-35.317 35.628-35.115 35.644-34.914C35.66-34.713 35.731-34.52 35.85-34.357L44.6-22.326C44.701-22.186 44.834-22.073 44.988-21.994C45.142-21.916 45.312-21.875 45.484-21.875C45.657-21.875 45.827-21.916 45.98-21.994C46.134-22.073 46.267-22.186 46.369-22.326L55.119-34.357C55.237-34.52 55.308-34.713 55.324-34.914C55.34-35.115 55.3-35.317 55.208-35.496C55.117-35.676 54.978-35.827 54.806-35.932C54.634-36.038 54.436-36.094 54.234-36.094L49.859-36.094L49.859-60.156C49.859-60.446 49.744-60.725 49.539-60.93C49.334-61.135 49.056-61.25 48.765-61.25C48.475-61.25 48.197-61.135 47.992-60.93C47.787-60.725 47.672-60.446 47.672-60.156L47.672-35C47.672-34.856 47.7-34.714 47.755-34.581C47.81-34.449 47.89-34.328 47.992-34.226C48.093-34.125 48.214-34.044 48.347-33.989C48.48-33.934 48.622-33.906 48.765-33.906L52.086-33.906L45.484-24.828L38.882-33.906L42.203-33.906C42.347-33.906 42.489-33.934 42.622-33.989C42.754-34.044 42.875-34.125 42.977-34.226C43.078-34.328 43.159-34.449 43.214-34.581C43.269-34.714 43.297-34.856 43.297-35L43.297-60.156C43.297-60.446 43.181-60.725 42.976-60.93C42.771-61.135 42.493-61.25 42.203-61.25C41.913-61.25 41.635-61.135 41.43-60.93C41.224-60.725 41.109-60.446 41.109-60.156L41.109-36.094L36.734-36.094C36.533-36.094 36.335-36.038 36.163-35.933C35.991-35.827 35.852-35.676 35.76-35.497ZM26.006-31.076C26.107-30.936 26.24-30.823 26.394-30.744C26.548-30.666 26.718-30.625 26.89-30.625C27.063-30.625 27.233-30.666 27.387-30.744C27.54-30.823 27.673-30.936 27.775-31.076L36.525-43.107C36.643-43.27 36.715-43.463 36.73-43.664C36.746-43.865 36.706-44.067 36.615-44.246C36.523-44.426 36.384-44.577 36.212-44.682C36.04-44.788 35.842-44.844 35.64-44.844L31.265-44.844L31.265-66.719C31.265-67.009 31.15-67.287 30.945-67.492C30.74-67.697 30.462-67.812 30.172-67.812C29.882-67.812 29.603-67.697 29.398-67.492C29.193-67.287 29.078-67.009 29.078-66.719L29.078-43.75C29.078-43.606 29.106-43.464 29.161-43.331C29.216-43.199 29.297-43.078 29.398-42.976C29.5-42.875 29.62-42.794 29.753-42.739C29.886-42.684 30.028-42.656 30.172-42.656L33.493-42.656L26.89-33.578L20.288-42.656L23.609-42.656C23.753-42.656 23.895-42.684 24.028-42.739C24.161-42.794 24.281-42.875 24.383-42.976C24.484-43.078 24.565-43.199 24.62-43.331C24.675-43.464 24.703-43.606 24.703-43.75L24.703-68.906C24.703-69.196 24.588-69.475 24.383-69.68C24.178-69.885 23.899-70 23.609-70C23.319-70 23.041-69.885 22.836-69.68C22.631-69.475 22.515-69.196 22.515-68.906L22.515-44.844L18.14-44.844C17.939-44.844 17.741-44.788 17.569-44.682C17.397-44.577 17.258-44.426 17.166-44.246C17.075-44.067 17.035-43.865 17.051-43.664C17.066-43.463 17.138-43.27 17.256-43.107L26.006-31.076ZM63.194-31.076C63.295-30.936 63.428-30.823 63.582-30.744C63.735-30.666 63.905-30.625 64.078-30.625C64.251-30.625 64.421-30.666 64.574-30.744C64.728-30.823 64.861-30.936 64.962-31.076L73.712-43.107C73.831-43.27 73.902-43.463 73.918-43.664C73.934-43.865 73.894-44.067 73.802-44.246C73.711-44.426 73.571-44.577 73.399-44.682C73.227-44.788 73.03-44.844 72.828-44.844L68.453-44.844L68.453-62.344C68.453-62.634 68.338-62.912 68.133-63.117C67.928-63.322 67.649-63.438 67.359-63.438C67.069-63.438 66.791-63.322 66.586-63.117C66.381-62.912 66.265-62.634 66.265-62.344L66.265-43.75C66.265-43.606 66.294-43.464 66.349-43.331C66.404-43.199 66.484-43.078 66.586-42.976C66.687-42.875 66.808-42.794 66.941-42.739C67.073-42.684 67.216-42.656 67.359-42.656L70.68-42.656L64.078-33.578L57.476-42.656L60.797-42.656C60.94-42.656 61.083-42.684 61.215-42.739C61.348-42.794 61.469-42.875 61.57-42.976C61.672-43.078 61.752-43.199 61.807-43.331C61.862-43.464 61.891-43.606 61.89-43.75L61.89-68.906C61.89-69.196 61.775-69.475 61.57-69.68C61.365-69.885 61.087-70 60.797-70C60.507-70 60.228-69.885 60.023-69.68C59.818-69.475 59.703-69.196 59.703-68.906L59.703-44.844L55.328-44.844C55.126-44.844 54.929-44.788 54.757-44.682C54.585-44.577 54.445-44.426 54.354-44.246C54.262-44.067 54.222-43.865 54.238-43.664C54.254-43.463 54.325-43.27 54.444-43.107L63.194-31.076Z"/>
  </g>
 </g>
</svg>
