<?xml version="1.0" encoding="UTF-8"?>
<!--Generator: Apple Native CoreSVG 341-->
<!DOCTYPE svg
PUBLIC "-//W3C//DTD SVG 1.1//EN"
       "http://www.w3.org/Graphics/SVG/1.1/DTD/svg11.dtd">
<svg version="1.1" xmlns="http://www.w3.org/2000/svg" xmlns:xlink="http://www.w3.org/1999/xlink" viewBox="0 0 3300 2200">
 <!--glyph: "", point size: 100.0, font version: "21.0d4e1", template writer version: "138.0.0"-->
 <style>.defaults {-sfsymbols-variable-value-mode:color;-sfsymbols-draw-reverses-motion-groups:true}

.monochrome-0 {-sfsymbols-motion-group:0;-sfsymbols-layer-tags:683a9e3d4d8abcc}

.multicolor-0:tintColor {-sfsymbols-motion-group:0;-sfsymbols-layer-tags:683a9e3d4d8abcc}

.hierarchical-0:primary {-sfsymbols-motion-group:0;-sfsymbols-layer-tags:683a9e3d4d8abcc}

.SFSymbolsPreviewWireframe {fill:none;opacity:1.0;stroke:black;stroke-width:0.5}
</style>
 <g id="Notes">
  <rect height="2200" id="artboard" style="fill:white;opacity:1" width="3300" x="0" y="0"/>
  <line style="fill:none;stroke:black;opacity:1;stroke-width:0.5;" x1="263" x2="3036" y1="292" y2="292"/>
  <text style="stroke:none;fill:black;font-family:sans-serif;font-size:13;font-weight:bold;" transform="matrix(1 0 0 1 263 322)">Weight/Scale Variations</text>
  <text style="stroke:none;fill:black;font-family:sans-serif;font-size:13;text-anchor:middle;" transform="matrix(1 0 0 1 559.711 322)">Ultralight</text>
  <text style="stroke:none;fill:black;font-family:sans-serif;font-size:13;text-anchor:middle;" transform="matrix(1 0 0 1 856.422 322)">Thin</text>
  <text style="stroke:none;fill:black;font-family:sans-serif;font-size:13;text-anchor:middle;" transform="matrix(1 0 0 1 1153.13 322)">Light</text>
  <text style="stroke:none;fill:black;font-family:sans-serif;font-size:13;text-anchor:middle;" transform="matrix(1 0 0 1 1449.84 322)">Regular</text>
  <text style="stroke:none;fill:black;font-family:sans-serif;font-size:13;text-anchor:middle;" transform="matrix(1 0 0 1 1746.56 322)">Medium</text>
  <text style="stroke:none;fill:black;font-family:sans-serif;font-size:13;text-anchor:middle;" transform="matrix(1 0 0 1 2043.27 322)">Semibold</text>
  <text style="stroke:none;fill:black;font-family:sans-serif;font-size:13;text-anchor:middle;" transform="matrix(1 0 0 1 2339.98 322)">Bold</text>
  <text style="stroke:none;fill:black;font-family:sans-serif;font-size:13;text-anchor:middle;" transform="matrix(1 0 0 1 2636.69 322)">Heavy</text>
  <text style="stroke:none;fill:black;font-family:sans-serif;font-size:13;text-anchor:middle;" transform="matrix(1 0 0 1 2933.4 322)">Black</text>
  <line style="fill:none;stroke:black;opacity:1;stroke-width:0.5;" x1="263" x2="3036" y1="1903" y2="1903"/>
  <g transform="matrix(0.2 0 0 0.2 263 1933)">
   <path d="m46.2402 4.15039c21.7773 0 39.4531-17.627 39.4531-39.4043s-17.6758-39.4043-39.4531-39.4043c-21.7285 0-39.4043 17.627-39.4043 39.4043s17.6758 39.4043 39.4043 39.4043Zm0-7.42188c-17.6758 0-31.9336-14.3066-31.9336-31.9824s14.2578-31.9824 31.9336-31.9824 31.9824 14.3066 31.9824 31.9824-14.3066 31.9824-31.9824 31.9824Zm3.61328-17.7734v-28.4668c0-2.24609-1.46484-3.75977-3.71094-3.75977-2.14844 0-3.61328 1.51367-3.61328 3.75977v28.4668c0 2.19727 1.46484 3.71094 3.61328 3.71094 2.24609 0 3.71094-1.51367 3.71094-3.71094Zm-17.8223-10.5957h28.418c2.19727 0 3.71094-1.46484 3.71094-3.61328 0-2.19727-1.51367-3.71094-3.71094-3.71094h-28.418c-2.24609 0-3.75977 1.51367-3.75977 3.71094 0 2.14844 1.51367 3.61328 3.75977 3.61328Z"/>
  </g>
  <g transform="matrix(0.2 0 0 0.2 281.506 1933)">
   <path d="m58.5449 14.5508c27.4902 0 49.8047-22.3145 49.8047-49.8047s-22.3145-49.8047-49.8047-49.8047-49.8047 22.3145-49.8047 49.8047 22.3145 49.8047 49.8047 49.8047Zm0-8.30078c-22.9492 0-41.5039-18.5547-41.5039-41.5039s18.5547-41.5039 41.5039-41.5039 41.5039 18.5547 41.5039 41.5039-18.5547 41.5039-41.5039 41.5039Zm4.05273-23.0957v-36.9141c0-2.49023-1.70898-4.19922-4.15039-4.19922-2.39258 0-4.05273 1.70898-4.05273 4.19922v36.9141c0 2.44141 1.66016 4.15039 4.05273 4.15039 2.44141 0 4.15039-1.66016 4.15039-4.15039Zm-22.5586-14.4043h36.9629c2.44141 0 4.15039-1.61133 4.15039-4.00391 0-2.44141-1.70898-4.15039-4.15039-4.15039h-36.9629c-2.49023 0-4.15039 1.70898-4.15039 4.15039 0 2.39258 1.66016 4.00391 4.15039 4.00391Z"/>
  </g>
  <g transform="matrix(0.2 0 0 0.2 304.924 1933)">
   <path d="m74.8535 28.3203c35.1074 0 63.623-28.4668 63.623-63.5742s-28.5156-63.623-63.623-63.623-63.5742 28.5156-63.5742 63.623 28.4668 63.5742 63.5742 63.5742Zm0-9.08203c-30.127 0-54.4922-24.3652-54.4922-54.4922s24.3652-54.4922 54.4922-54.4922 54.4922 24.3652 54.4922 54.4922-24.3652 54.4922-54.4922 54.4922Zm4.44336-30.3223v-48.4863c0-2.73438-1.85547-4.63867-4.54102-4.63867-2.58789 0-4.44336 1.9043-4.44336 4.63867v48.4863c0 2.68555 1.85547 4.58984 4.44336 4.58984 2.68555 0 4.54102-1.85547 4.54102-4.58984Zm-28.7109-19.7754h48.4863c2.68555 0 4.58984-1.80664 4.58984-4.39453 0-2.73438-1.85547-4.58984-4.58984-4.58984h-48.4863c-2.73438 0-4.58984 1.85547-4.58984 4.58984 0 2.58789 1.85547 4.39453 4.58984 4.39453Z"/>
  </g>
  <text style="stroke:none;fill:black;font-family:sans-serif;font-size:13;font-weight:bold;" transform="matrix(1 0 0 1 263 1953)">Design Variations</text>
  <text style="stroke:none;fill:black;font-family:sans-serif;font-size:13;" transform="matrix(1 0 0 1 263 1971)">Symbols are supported in up to nine weights and three scales.</text>
  <text style="stroke:none;fill:black;font-family:sans-serif;font-size:13;" transform="matrix(1 0 0 1 263 1989)">For optimal layout with text and other symbols, vertically align</text>
  <text style="stroke:none;fill:black;font-family:sans-serif;font-size:13;" transform="matrix(1 0 0 1 263 2007)">symbols with the adjacent text.</text>
  <line style="fill:none;stroke:#00AEEF;stroke-width:0.5;opacity:1.0;" x1="776" x2="776" y1="1919" y2="1933"/>
  <g transform="matrix(0.2 0 0 0.2 776 1933)">
   <path d="m16.5527 0.78125c2.58789 0 3.85742-0.976562 4.78516-3.71094l20.5566-57.5195h0.244141l20.6055 57.5195c0.927734 2.73438 2.19727 3.71094 4.73633 3.71094 2.58789 0 4.24805-1.5625 4.24805-4.00391 0-0.830078-0.146484-1.61133-0.537109-2.63672l-22.9004-60.9863c-1.12305-2.97852-3.125-4.49219-6.25-4.49219-3.02734 0-5.07812 1.46484-6.15234 4.44336l-22.9004 61.084c-0.390625 1.02539-0.537109 1.80664-0.537109 2.63672 0 2.44141 1.5625 3.95508 4.10156 3.95508Zm10.2051-20.9473h30.6641c2.00195 0 3.66211-1.66016 3.66211-3.66211 0-2.05078-1.66016-3.66211-3.66211-3.66211h-30.6641c-2.00195 0-3.66211 1.61133-3.66211 3.66211 0 2.00195 1.66016 3.66211 3.66211 3.66211Z"/>
  </g>
  <line style="fill:none;stroke:#00AEEF;stroke-width:0.5;opacity:1.0;" x1="792.836" x2="792.836" y1="1919" y2="1933"/>
  <text style="stroke:none;fill:black;font-family:sans-serif;font-size:13;font-weight:bold;" transform="matrix(1 0 0 1 776 1953)">Margins</text>
  <text style="stroke:none;fill:black;font-family:sans-serif;font-size:13;" transform="matrix(1 0 0 1 776 1971)">Leading and trailing margins on the left and right side of each symbol</text>
  <text style="stroke:none;fill:black;font-family:sans-serif;font-size:13;" transform="matrix(1 0 0 1 776 1989)">can be adjusted by modifying the x-location of the margin guidelines.</text>
  <text style="stroke:none;fill:black;font-family:sans-serif;font-size:13;" transform="matrix(1 0 0 1 776 2007)">Modifications are automatically applied proportionally to all</text>
  <text style="stroke:none;fill:black;font-family:sans-serif;font-size:13;" transform="matrix(1 0 0 1 776 2025)">scales and weights.</text>
  <g transform="matrix(0.2 0 0 0.2 1289 1933)">
   <path d="m14.209 13.1348 7.86133 7.86133c4.29688 4.39453 9.32617 4.10156 13.8672-1.02539l60.6934-68.2129-4.88281-4.88281-60.2539 67.6758c-1.80664 1.95312-3.4668 2.44141-5.81055 0.0976562l-5.17578-5.12695c-2.29492-2.29492-1.80664-3.95508 0.195312-5.81055l67.4805-62.1582-4.88281-4.83398-68.0664 62.5977c-4.98047 4.58984-5.32227 9.47266-1.02539 13.8184Zm44.873-97.4609c-2.05078 2.00195-2.24609 4.88281-1.07422 6.78711 1.12305 1.80664 3.4668 3.02734 6.5918 2.24609 5.85938-1.66016 12.5977-2.39258 18.8965 0.927734l-2.68555 7.12891c-1.61133 4.00391-0.732422 6.88477 1.70898 9.42383l10.2539 10.3027c2.34375 2.39258 4.54102 2.44141 7.08008 1.95312l4.44336-0.732422 2.58789 2.53906-0.195312 2.24609c-0.0976562 2.29492 0.537109 4.29688 2.7832 6.49414l3.36914 3.32031c2.29492 2.29492 5.51758 2.49023 7.8125 0.195312l12.9883-13.0371c2.29492-2.34375 2.14844-5.37109-0.195312-7.66602l-3.41797-3.41797c-2.19727-2.19727-4.05273-3.02734-6.34766-2.88086l-2.34375 0.244141-2.44141-2.44141 1.02539-4.6875c0.634766-2.73438-0.244141-4.98047-2.88086-7.61719l-11.2793-11.1816c-12.9395-12.8418-35.5957-11.0352-46.6797-0.146484Zm7.08008 2.05078c8.78906-6.39648 25.9766-5.66406 33.6914 1.95312l12.3047 12.207c1.02539 1.02539 1.2207 1.80664 0.927734 3.32031l-1.46484 6.64062 6.73828 6.68945 4.39453-0.244141c1.12305-0.0488281 1.51367 0.0488281 2.34375 0.878906l2.53906 2.49023-10.8398 10.8398-2.49023-2.49023c-0.830078-0.878906-0.976562-1.2207-0.927734-2.39258l0.292969-4.3457-6.68945-6.73828-6.83594 1.17188c-1.41602 0.292969-2.05078 0.195312-3.17383-0.878906l-8.93555-8.88672c-1.07422-1.02539-1.17188-1.70898-0.488281-3.36914l4.58984-11.4746c-6.10352-6.34766-17.041-7.51953-25.5859-4.58984-0.683594 0.244141-0.927734-0.390625-0.390625-0.78125Z"/>
  </g>
  <text style="stroke:none;fill:black;font-family:sans-serif;font-size:13;font-weight:bold;" transform="matrix(1 0 0 1 1289 1953)">Exporting</text>
  <text style="stroke:none;fill:black;font-family:sans-serif;font-size:13;" transform="matrix(1 0 0 1 1289 1971)">Symbols should be outlined when exporting to ensure the</text>
  <text style="stroke:none;fill:black;font-family:sans-serif;font-size:13;" transform="matrix(1 0 0 1 1289 1989)">design is preserved when submitting to Xcode.</text>
  <text id="template-version" style="stroke:none;fill:black;font-family:sans-serif;font-size:13;text-anchor:end;" transform="matrix(1 0 0 1 3036 1933)">Template v.6.0</text>
  <text style="stroke:none;fill:black;font-family:sans-serif;font-size:13;text-anchor:end;" transform="matrix(1 0 0 1 3036 1951)">Requires Xcode 16 or greater</text>
  <text id="descriptive-name" style="stroke:none;fill:black;font-family:sans-serif;font-size:13;text-anchor:end;" transform="matrix(1 0 0 1 3036 1969)">Generated from Attitude</text>
  <text style="stroke:none;fill:black;font-family:sans-serif;font-size:13;text-anchor:end;" transform="matrix(1 0 0 1 3036 1987)">Typeset at 100.0 points</text>
  <text style="stroke:none;fill:black;font-family:sans-serif;font-size:13;" transform="matrix(1 0 0 1 263 726)">Small</text>
  <text style="stroke:none;fill:black;font-family:sans-serif;font-size:13;" transform="matrix(1 0 0 1 263 1156)">Medium</text>
  <text style="stroke:none;fill:black;font-family:sans-serif;font-size:13;" transform="matrix(1 0 0 1 263 1586)">Large</text>
 </g>
 <g id="Guides">
  <g id="H-reference" style="fill:#27AAE1;stroke:none;" transform="matrix(1 0 0 1 339 696)">
   <path d="M0.993654 0L3.63775 0L29.3281-67.1323L30.0303-67.1323L30.0303-70.459L28.1226-70.459ZM11.6885-24.4799L46.9815-24.4799L46.2315-26.7285L12.4385-26.7285ZM55.1196 0L57.7637 0L30.6382-70.459L29.4326-70.459L29.4326-67.1323Z"/>
  </g>
  <line id="Baseline-S" style="fill:none;stroke:#27AAE1;opacity:1;stroke-width:0.5;" x1="263" x2="3036" y1="696" y2="696"/>
  <line id="Capline-S" style="fill:none;stroke:#27AAE1;opacity:1;stroke-width:0.5;" x1="263" x2="3036" y1="625.541" y2="625.541"/>
  <g id="H-reference" style="fill:#27AAE1;stroke:none;" transform="matrix(1 0 0 1 339 1126)">
   <path d="M0.993654 0L3.63775 0L29.3281-67.1323L30.0303-67.1323L30.0303-70.459L28.1226-70.459ZM11.6885-24.4799L46.9815-24.4799L46.2315-26.7285L12.4385-26.7285ZM55.1196 0L57.7637 0L30.6382-70.459L29.4326-70.459L29.4326-67.1323Z"/>
  </g>
  <line id="Baseline-M" style="fill:none;stroke:#27AAE1;opacity:1;stroke-width:0.5;" x1="263" x2="3036" y1="1126" y2="1126"/>
  <line id="Capline-M" style="fill:none;stroke:#27AAE1;opacity:1;stroke-width:0.5;" x1="263" x2="3036" y1="1055.54" y2="1055.54"/>
  <g id="H-reference" style="fill:#27AAE1;stroke:none;" transform="matrix(1 0 0 1 339 1556)">
   <path d="M0.993654 0L3.63775 0L29.3281-67.1323L30.0303-67.1323L30.0303-70.459L28.1226-70.459ZM11.6885-24.4799L46.9815-24.4799L46.2315-26.7285L12.4385-26.7285ZM55.1196 0L57.7637 0L30.6382-70.459L29.4326-70.459L29.4326-67.1323Z"/>
  </g>
  <line id="Baseline-L" style="fill:none;stroke:#27AAE1;opacity:1;stroke-width:0.5;" x1="263" x2="3036" y1="1556" y2="1556"/>
  <line id="Capline-L" style="fill:none;stroke:#27AAE1;opacity:1;stroke-width:0.5;" x1="263" x2="3036" y1="1485.54" y2="1485.54"/>
  <line id="right-margin-Black-S" style="fill:none;stroke:#00AEEF;stroke-width:0.5;opacity:1.0;" x1="2980.81" x2="2980.81" y1="600.785" y2="720.121"/>
  <line id="left-margin-Black-S" style="fill:none;stroke:#00AEEF;stroke-width:0.5;opacity:1.0;" x1="2885.99" x2="2885.99" y1="600.785" y2="720.121"/>
  <line id="right-margin-Regular-S" style="fill:none;stroke:#00AEEF;stroke-width:0.5;opacity:1.0;" x1="1493.96" x2="1493.96" y1="600.785" y2="720.121"/>
  <line id="left-margin-Regular-S" style="fill:none;stroke:#00AEEF;stroke-width:0.5;opacity:1.0;" x1="1405.73" x2="1405.73" y1="600.785" y2="720.121"/>
  <line id="right-margin-Ultralight-S" style="fill:none;stroke:#00AEEF;stroke-width:0.5;opacity:1.0;" x1="601.625" x2="601.625" y1="600.785" y2="720.121"/>
  <line id="left-margin-Ultralight-S" style="fill:none;stroke:#00AEEF;stroke-width:0.5;opacity:1.0;" x1="517.797" x2="517.797" y1="600.785" y2="720.121"/>
 </g>
 <g id="Symbols">
  <g id="Black-S" transform="matrix(1 0 0 1 2885.99 696)">
   <path class="monochrome-0 multicolor-0:tintColor hierarchical-0:primary SFSymbolsPreviewWireframe" d="M71.76-59.749C65.15-66.359 56.36-70 47.01-70C39.64-70 32.58-67.733 26.61-63.443C26-63.003 25.86-62.148 26.3-61.535C26.74-60.922 27.59-60.781 28.21-61.222C30.97-63.207 33.99-64.721 37.16-65.738C35.21-64.065 33.41-61.882 31.83-59.225C30.71-57.348 29.74-55.297 28.92-53.11C26.72-52.289 24.65-51.314 22.77-50.191C20.12-48.617 17.95-46.827 16.28-44.883C17.3-48.046 18.81-51.049 20.79-53.801C21.23-54.414 21.09-55.268 20.47-55.709C19.86-56.15 19.01-56.01 18.57-55.396C14.28-49.426 12.01-42.373 12.01-35C12.01-25.651 15.65-16.862 22.26-10.251C28.87-3.641 37.66 0 47.01 0C56.36 0 65.15-3.641 71.76-10.251C78.37-16.862 82.01-25.651 82.01-35C82.01-44.349 78.37-53.138 71.76-59.749ZM51.12-15.312C51.19-14.56 51.86-14.011 52.61-14.085C55.83-14.401 58.87-14.978 61.69-15.776C61.13-14.512 60.52-13.308 59.84-12.174C56.35-6.303 51.79-3.07 47.01-3.07C42.23-3.07 37.67-6.303 34.18-12.174C33.5-13.308 32.89-14.512 32.33-15.775C35.15-14.978 38.19-14.401 41.41-14.085C41.45-14.08 41.5-14.078 41.54-14.078C42.24-14.078 42.83-14.606 42.9-15.312C42.98-16.063 42.43-16.732 41.68-16.806C37.92-17.176 34.32-17.939 31.06-19.041C29.42-23.849 28.56-29.311 28.56-34.999C28.56-40.693 29.43-46.16 31.06-50.97C35.86-52.591 41.32-53.454 47.01-53.454C52.7-53.454 58.16-52.591 62.96-50.97C64.59-46.16 65.46-40.693 65.46-34.999C65.46-29.311 64.6-23.849 62.96-19.041C59.7-17.939 56.1-17.176 52.35-16.806C51.59-16.732 51.04-16.063 51.12-15.312ZM66.21-49.71C67.49-49.147 68.71-48.523 69.85-47.841C75.71-44.353 78.94-39.793 78.94-35C78.94-30.736 76.31-26.559 71.53-23.238C69.95-22.135 68.16-21.151 66.22-20.298C67.51-24.844 68.2-29.84 68.2-35C68.2-40.163 67.51-45.162 66.21-49.71ZM77.72-44.906C76.05-46.841 73.89-48.623 71.25-50.191C69.37-51.314 67.3-52.289 65.1-53.11C64.28-55.297 63.31-57.348 62.19-59.225C60.61-61.872 58.82-64.049 56.88-65.719C66.73-62.546 74.53-54.755 77.72-44.906ZM34.18-57.826C37.67-63.696 42.23-66.929 47.01-66.929C51.79-66.929 56.35-63.696 59.84-57.826C60.52-56.691 61.13-55.487 61.69-54.223C57.16-55.51 52.17-56.189 47.01-56.189C41.85-56.189 36.86-55.51 32.33-54.223C32.89-55.487 33.5-56.691 34.18-57.826ZM24.17-47.841C25.31-48.523 26.53-49.147 27.81-49.71C26.51-45.162 25.82-40.163 25.82-35C25.82-29.84 26.51-24.844 27.8-20.298C25.86-21.151 24.07-22.135 22.49-23.238C17.71-26.559 15.08-30.736 15.08-35C15.08-39.793 18.31-44.354 24.17-47.841ZM16.3-25.111C19.19-21.724 23.55-18.874 28.93-16.882C29.74-14.698 30.71-12.65 31.83-10.775C33.41-8.128 35.2-5.95 37.14-4.28C27.28-7.455 19.48-15.254 16.3-25.111ZM56.88-4.28C58.82-5.95 60.61-8.128 62.19-10.775C63.31-12.65 64.28-14.698 65.09-16.882C70.47-18.874 74.83-21.725 77.72-25.111C74.54-15.254 66.74-7.455 56.88-4.28ZM37.44-40.469L33.06-40.469C32.31-40.469 31.7-39.857 31.7-39.102C31.7-38.346 32.31-37.734 33.06-37.734L37.17-37.734L37.17-35L33.56-35C32.8-35 32.19-34.388 32.19-33.633C32.19-32.878 32.8-32.266 33.56-32.266L37.17-32.266L37.17-29.531L33.06-29.531C32.31-29.531 31.7-28.919 31.7-28.164C31.7-27.409 32.31-26.797 33.06-26.797L37.44-26.797C38.8-26.797 39.9-27.901 39.9-29.258L39.9-38.008C39.9-39.365 38.8-40.469 37.44-40.469ZM48.38-37.734C49.13-37.734 49.74-38.346 49.74-39.102C49.74-39.857 49.13-40.469 48.38-40.469L44-40.469C42.65-40.469 41.54-39.365 41.54-38.008L41.54-33.647L41.54-33.633L41.54-33.618L41.54-29.258C41.54-27.901 42.65-26.797 44-26.797L47.28-26.797C47.94-26.797 48.56-27.053 49.02-27.518C49.49-27.984 49.74-28.601 49.74-29.258L49.74-32.539C49.74-33.896 48.64-35 47.28-35L44.28-35L44.28-37.734L48.38-37.734ZM47.01-32.266L47.01-29.531L44.28-29.531L44.28-32.266L47.01-32.266ZM53.85-26.797L57.13-26.797C58.48-26.797 59.59-27.901 59.59-29.258L59.59-38.008C59.59-39.365 58.48-40.469 57.13-40.469L53.85-40.469C52.49-40.469 51.38-39.365 51.38-38.008L51.38-29.258C51.38-27.901 52.49-26.797 53.85-26.797ZM54.12-37.734L56.85-37.734L56.85-29.531L54.12-29.531L54.12-37.734ZM60.96-40.468C61.71-40.468 62.32-41.081 62.32-41.836C62.32-42.591 61.71-43.203 60.96-43.203C60.2-43.203 59.59-42.591 59.59-41.836L59.59-41.835C59.59-41.08 60.2-40.468 60.96-40.468ZM23.23-57.414C23.6-57.414 23.97-57.566 24.24-57.862C24.75-58.421 24.71-59.286 24.15-59.794C23.59-60.301 22.72-60.26 22.22-59.702L22.22-59.701C21.71-59.142 21.75-58.278 22.31-57.77C22.57-57.532 22.9-57.414 23.23-57.414ZM47.01-16.545L47.01-16.545C46.25-16.545 45.64-15.933 45.64-15.178C45.64-14.423 46.26-13.811 47.01-13.811C47.77-13.811 48.38-14.423 48.38-15.178C48.38-15.933 47.77-16.545 47.01-16.545Z"/>
  </g>
  <g id="Regular-S" transform="matrix(1 0 0 1 1405.73 696)">
   <path class="monochrome-0 multicolor-0:tintColor hierarchical-0:primary SFSymbolsPreviewWireframe" d="M69.02-59.749C62.41-66.359 53.62-70 44.27-70C36.9-70 29.84-67.733 23.87-63.443C23.26-63.003 23.12-62.148 23.56-61.535C24-60.922 24.85-60.781 25.47-61.222C28.23-63.207 31.25-64.721 34.42-65.738C32.47-64.065 30.67-61.882 29.09-59.225C27.97-57.348 27-55.297 26.18-53.11C23.98-52.289 21.91-51.314 20.03-50.191C17.38-48.617 15.21-46.827 13.54-44.883C14.56-48.046 16.07-51.049 18.05-53.801C18.49-54.414 18.35-55.268 17.73-55.709C17.12-56.15 16.27-56.01 15.83-55.396C11.54-49.426 9.27-42.373 9.27-35C9.27-25.651 12.91-16.862 19.52-10.251C26.13-3.641 34.92 0 44.27 0C53.62 0 62.41-3.641 69.02-10.251C75.63-16.862 79.27-25.651 79.27-35C79.27-44.349 75.63-53.138 69.02-59.749ZM48.38-15.312C48.45-14.56 49.12-14.011 49.87-14.085C53.09-14.401 56.13-14.978 58.95-15.776C58.39-14.512 57.78-13.308 57.1-12.174C53.61-6.303 49.05-3.07 44.27-3.07C39.49-3.07 34.93-6.303 31.44-12.174C30.76-13.308 30.15-14.512 29.59-15.775C32.41-14.978 35.45-14.401 38.67-14.085C38.71-14.08 38.76-14.078 38.8-14.078C39.5-14.078 40.09-14.606 40.16-15.312C40.24-16.063 39.69-16.732 38.94-16.806C35.18-17.176 31.58-17.939 28.32-19.041C26.68-23.849 25.82-29.311 25.82-34.999C25.82-40.693 26.69-46.16 28.32-50.97C33.12-52.591 38.58-53.454 44.27-53.454C49.96-53.454 55.42-52.591 60.22-50.97C61.85-46.16 62.72-40.693 62.72-34.999C62.72-29.311 61.86-23.849 60.22-19.041C56.96-17.939 53.36-17.176 49.61-16.806C48.85-16.732 48.3-16.063 48.38-15.312ZM63.47-49.71C64.75-49.147 65.97-48.523 67.11-47.841C72.97-44.353 76.2-39.793 76.2-35C76.2-30.736 73.57-26.559 68.79-23.238C67.21-22.135 65.42-21.151 63.48-20.298C64.77-24.844 65.46-29.84 65.46-35C65.46-40.163 64.77-45.162 63.47-49.71ZM74.98-44.906C73.31-46.841 71.15-48.623 68.51-50.191C66.63-51.314 64.56-52.289 62.36-53.11C61.54-55.297 60.57-57.348 59.45-59.225C57.87-61.872 56.08-64.049 54.14-65.719C63.99-62.546 71.79-54.755 74.98-44.906ZM31.44-57.826C34.93-63.696 39.49-66.929 44.27-66.929C49.05-66.929 53.61-63.696 57.1-57.826C57.78-56.691 58.39-55.487 58.95-54.223C54.42-55.51 49.43-56.189 44.27-56.189C39.11-56.189 34.12-55.51 29.59-54.223C30.15-55.487 30.76-56.691 31.44-57.826ZM21.43-47.841C22.57-48.523 23.79-49.147 25.07-49.71C23.77-45.162 23.08-40.163 23.08-35C23.08-29.84 23.77-24.844 25.06-20.298C23.12-21.151 21.33-22.135 19.75-23.238C14.97-26.559 12.34-30.736 12.34-35C12.34-39.793 15.57-44.354 21.43-47.841ZM13.56-25.111C16.45-21.724 20.81-18.874 26.19-16.882C27-14.698 27.97-12.65 29.09-10.775C30.67-8.128 32.46-5.95 34.4-4.28C24.54-7.455 16.74-15.254 13.56-25.111ZM54.14-4.28C56.08-5.95 57.87-8.128 59.45-10.775C60.57-12.65 61.54-14.698 62.35-16.882C67.73-18.874 72.09-21.725 74.98-25.111C71.8-15.254 64-7.455 54.14-4.28ZM34.7-40.469L30.32-40.469C29.57-40.469 28.96-39.857 28.96-39.102C28.96-38.346 29.57-37.734 30.32-37.734L34.43-37.734L34.43-35L30.82-35C30.06-35 29.45-34.388 29.45-33.633C29.45-32.878 30.06-32.266 30.82-32.266L34.43-32.266L34.43-29.531L30.32-29.531C29.57-29.531 28.96-28.919 28.96-28.164C28.96-27.409 29.57-26.797 30.32-26.797L34.7-26.797C36.06-26.797 37.16-27.901 37.16-29.258L37.16-38.008C37.16-39.365 36.06-40.469 34.7-40.469ZM45.64-37.734C46.39-37.734 47-38.346 47-39.102C47-39.857 46.39-40.469 45.64-40.469L41.26-40.469C39.91-40.469 38.8-39.365 38.8-38.008L38.8-33.647L38.8-33.633L38.8-33.618L38.8-29.258C38.8-27.901 39.91-26.797 41.26-26.797L44.54-26.797C45.2-26.797 45.82-27.053 46.28-27.518C46.75-27.984 47-28.601 47-29.258L47-32.539C47-33.896 45.9-35 44.54-35L41.54-35L41.54-37.734L45.64-37.734ZM44.27-32.266L44.27-29.531L41.54-29.531L41.54-32.266L44.27-32.266ZM51.11-26.797L54.39-26.797C55.74-26.797 56.85-27.901 56.85-29.258L56.85-38.008C56.85-39.365 55.74-40.469 54.39-40.469L51.11-40.469C49.75-40.469 48.64-39.365 48.64-38.008L48.64-29.258C48.64-27.901 49.75-26.797 51.11-26.797ZM51.38-37.734L54.11-37.734L54.11-29.531L51.38-29.531L51.38-37.734ZM58.22-40.468C58.97-40.468 59.58-41.081 59.58-41.836C59.58-42.591 58.97-43.203 58.22-43.203C57.46-43.203 56.85-42.591 56.85-41.836L56.85-41.835C56.85-41.08 57.46-40.468 58.22-40.468ZM20.49-57.414C20.86-57.414 21.23-57.566 21.5-57.862C22.01-58.421 21.97-59.286 21.41-59.794C20.85-60.301 19.98-60.26 19.48-59.702L19.48-59.701C18.97-59.142 19.01-58.278 19.57-57.77C19.83-57.532 20.16-57.414 20.49-57.414ZM44.27-16.545L44.27-16.545C43.51-16.545 42.9-15.933 42.9-15.178C42.9-14.423 43.52-13.811 44.27-13.811C45.03-13.811 45.64-14.423 45.64-15.178C45.64-15.933 45.03-16.545 44.27-16.545Z"/>
  </g>
  <g id="Ultralight-S" transform="matrix(1 0 0 1 517.797 696)">
   <path class="monochrome-0 multicolor-0:tintColor hierarchical-0:primary SFSymbolsPreviewWireframe" d="M66.952-59.749C60.341-66.359 51.552-70 42.203-70C34.83-70 27.777-67.733 21.806-63.443C21.192-63.003 21.052-62.148 21.493-61.535C21.933-60.922 22.788-60.781 23.401-61.222C26.164-63.207 29.178-64.721 32.355-65.738C30.403-64.065 28.605-61.882 27.023-59.225C25.906-57.348 24.935-55.297 24.116-53.11C21.912-52.289 19.846-51.314 17.959-50.191C15.316-48.617 13.142-46.827 11.475-44.883C12.492-48.046 14.003-51.049 15.98-53.801C16.42-54.414 16.28-55.268 15.667-55.709C15.054-56.15 14.199-56.01 13.759-55.396C9.47-49.426 7.203-42.373 7.203-35C7.203-25.651 10.844-16.862 17.454-10.251C24.065-3.641 32.854 0 42.203 0C51.552 0 60.341-3.641 66.952-10.251C73.562-16.862 77.203-25.651 77.203-35C77.203-44.349 73.562-53.138 66.952-59.749ZM46.311-15.312C46.386-14.56 47.053-14.011 47.806-14.085C51.019-14.401 54.063-14.978 56.886-15.776C56.327-14.512 55.708-13.308 55.033-12.174C51.538-6.303 46.982-3.07 42.203-3.07C37.424-3.07 32.868-6.303 29.373-12.174C28.698-13.308 28.079-14.512 27.52-15.775C30.344-14.978 33.388-14.401 36.601-14.085C36.647-14.08 36.691-14.078 36.736-14.078C37.431-14.078 38.026-14.606 38.096-15.312C38.169-16.063 37.62-16.732 36.869-16.806C33.111-17.176 29.517-17.939 26.249-19.041C24.618-23.849 23.749-29.311 23.749-34.999C23.749-40.693 24.619-46.16 26.253-50.97C31.053-52.591 36.511-53.454 42.203-53.454C47.894-53.454 53.353-52.591 58.153-50.97C59.787-46.16 60.658-40.693 60.658-34.999C60.658-29.311 59.789-23.849 58.157-19.041C54.889-17.939 51.296-17.176 47.539-16.806C46.787-16.732 46.238-16.063 46.311-15.312ZM61.408-49.71C62.686-49.147 63.903-48.523 65.048-47.841C70.906-44.353 74.133-39.793 74.133-35C74.133-30.736 71.502-26.559 66.725-23.238C65.139-22.135 63.352-21.151 61.41-20.298C62.707-24.844 63.392-29.84 63.392-35C63.392-40.163 62.706-45.162 61.408-49.71ZM72.911-44.906C71.246-46.841 69.079-48.623 66.446-50.191C64.56-51.314 62.494-52.289 60.29-53.11C59.471-55.297 58.5-57.348 57.382-59.225C55.807-61.872 54.016-64.049 52.072-65.719C61.927-62.546 69.726-54.755 72.911-44.906ZM29.373-57.826C32.868-63.696 37.424-66.929 42.203-66.929C46.982-66.929 51.538-63.696 55.033-57.826C55.709-56.691 56.327-55.487 56.887-54.223C52.351-55.51 47.361-56.189 42.203-56.189C37.046-56.189 32.056-55.51 27.519-54.223C28.079-55.487 28.698-56.691 29.373-57.826ZM19.358-47.841C20.503-48.523 21.72-49.147 22.999-49.71C21.7-45.162 21.014-40.163 21.014-35C21.014-29.84 21.699-24.844 22.996-20.298C21.054-21.151 19.267-22.135 17.681-23.238C12.904-26.559 10.274-30.736 10.274-35C10.274-39.793 13.5-44.354 19.358-47.841ZM11.489-25.111C14.388-21.724 18.747-18.874 24.119-16.882C24.937-14.698 25.907-12.65 27.023-10.775C28.599-8.128 30.39-5.95 32.334-4.28C22.474-7.455 14.671-15.254 11.489-25.111ZM52.072-4.28C54.016-5.95 55.806-8.128 57.382-10.775C58.499-12.65 59.469-14.698 60.287-16.882C65.659-18.874 70.018-21.725 72.917-25.111C69.735-15.254 61.932-7.455 52.072-4.28ZM32.633-40.469L28.258-40.469C27.502-40.469 26.89-39.857 26.89-39.102C26.89-38.346 27.502-37.734 28.258-37.734L32.359-37.734L32.359-35L28.75-35C27.995-35 27.383-34.388 27.383-33.633C27.383-32.878 27.995-32.266 28.75-32.266L32.359-32.266L32.359-29.531L28.258-29.531C27.502-29.531 26.89-28.919 26.89-28.164C26.89-27.409 27.502-26.797 28.258-26.797L32.633-26.797C33.989-26.797 35.094-27.901 35.094-29.258L35.094-38.008C35.094-39.365 33.989-40.469 32.633-40.469ZM43.57-37.734C44.325-37.734 44.937-38.346 44.937-39.102C44.937-39.857 44.325-40.469 43.57-40.469L39.195-40.469C37.838-40.469 36.734-39.365 36.734-38.008L36.734-33.647L36.734-33.633L36.734-33.618L36.734-29.258C36.734-27.901 37.838-26.797 39.195-26.797L42.476-26.797C43.132-26.797 43.75-27.053 44.216-27.518C44.681-27.984 44.937-28.601 44.937-29.258L44.937-32.539C44.937-33.896 43.833-35 42.476-35L39.469-35L39.469-37.734L43.57-37.734ZM42.203-32.266L42.203-29.531L39.469-29.531L39.469-32.266L42.203-32.266ZM49.039-26.797L52.32-26.797C53.677-26.797 54.781-27.901 54.781-29.258L54.781-38.008C54.781-39.365 53.677-40.469 52.32-40.469L49.039-40.469C47.682-40.469 46.578-39.365 46.578-38.008L46.578-29.258C46.578-27.901 47.682-26.797 49.039-26.797ZM49.312-37.734L52.047-37.734L52.047-29.531L49.312-29.531L49.312-37.734ZM56.148-40.468C56.903-40.468 57.515-41.081 57.515-41.836C57.515-42.591 56.903-43.203 56.148-43.203C55.393-43.203 54.781-42.591 54.781-41.836L54.781-41.835C54.781-41.08 55.393-40.468 56.148-40.468ZM18.42-57.414C18.792-57.414 19.163-57.566 19.432-57.862C19.94-58.421 19.899-59.286 19.341-59.794C18.782-60.301 17.917-60.26 17.409-59.702L17.409-59.701C16.901-59.142 16.942-58.278 17.501-57.77C17.763-57.532 18.092-57.414 18.42-57.414ZM42.204-16.545L42.203-16.545C41.448-16.545 40.836-15.933 40.836-15.178C40.836-14.423 41.449-13.811 42.204-13.811C42.959-13.811 43.571-14.423 43.571-15.178C43.571-15.933 42.959-16.545 42.204-16.545Z"/>
  </g>
 </g>
</svg>
