<?xml version="1.0" encoding="UTF-8"?>
<!--Generator: Apple Native CoreSVG 341-->
<!DOCTYPE svg
PUBLIC "-//W3C//DTD SVG 1.1//EN"
       "http://www.w3.org/Graphics/SVG/1.1/DTD/svg11.dtd">
<svg version="1.1" xmlns="http://www.w3.org/2000/svg" xmlns:xlink="http://www.w3.org/1999/xlink" viewBox="0 0 3300 2200">
 <!--glyph: "", point size: 100.0, font version: "21.0d4e1", template writer version: "138.0.0"-->
 <style>.defaults {-sfsymbols-variable-value-mode:color;-sfsymbols-draw-reverses-motion-groups:true}

.monochrome-0 {-sfsymbols-motion-group:0;-sfsymbols-layer-tags:-9071db5f68f2974}

.multicolor-0:tintColor {-sfsymbols-motion-group:0;-sfsymbols-layer-tags:-9071db5f68f2974}

.hierarchical-0:primary {-sfsymbols-motion-group:0;-sfsymbols-layer-tags:-9071db5f68f2974}

.SFSymbolsPreviewWireframe {fill:none;opacity:1.0;stroke:black;stroke-width:0.5}
</style>
 <g id="Notes">
  <rect height="2200" id="artboard" style="fill:white;opacity:1" width="3300" x="0" y="0"/>
  <line style="fill:none;stroke:black;opacity:1;stroke-width:0.5;" x1="263" x2="3036" y1="292" y2="292"/>
  <text style="stroke:none;fill:black;font-family:sans-serif;font-size:13;font-weight:bold;" transform="matrix(1 0 0 1 263 322)">Weight/Scale Variations</text>
  <text style="stroke:none;fill:black;font-family:sans-serif;font-size:13;text-anchor:middle;" transform="matrix(1 0 0 1 559.711 322)">Ultralight</text>
  <text style="stroke:none;fill:black;font-family:sans-serif;font-size:13;text-anchor:middle;" transform="matrix(1 0 0 1 856.422 322)">Thin</text>
  <text style="stroke:none;fill:black;font-family:sans-serif;font-size:13;text-anchor:middle;" transform="matrix(1 0 0 1 1153.13 322)">Light</text>
  <text style="stroke:none;fill:black;font-family:sans-serif;font-size:13;text-anchor:middle;" transform="matrix(1 0 0 1 1449.84 322)">Regular</text>
  <text style="stroke:none;fill:black;font-family:sans-serif;font-size:13;text-anchor:middle;" transform="matrix(1 0 0 1 1746.56 322)">Medium</text>
  <text style="stroke:none;fill:black;font-family:sans-serif;font-size:13;text-anchor:middle;" transform="matrix(1 0 0 1 2043.27 322)">Semibold</text>
  <text style="stroke:none;fill:black;font-family:sans-serif;font-size:13;text-anchor:middle;" transform="matrix(1 0 0 1 2339.98 322)">Bold</text>
  <text style="stroke:none;fill:black;font-family:sans-serif;font-size:13;text-anchor:middle;" transform="matrix(1 0 0 1 2636.69 322)">Heavy</text>
  <text style="stroke:none;fill:black;font-family:sans-serif;font-size:13;text-anchor:middle;" transform="matrix(1 0 0 1 2933.4 322)">Black</text>
  <line style="fill:none;stroke:black;opacity:1;stroke-width:0.5;" x1="263" x2="3036" y1="1903" y2="1903"/>
  <g transform="matrix(0.2 0 0 0.2 263 1933)">
   <path d="m46.2402 4.15039c21.7773 0 39.4531-17.627 39.4531-39.4043s-17.6758-39.4043-39.4531-39.4043c-21.7285 0-39.4043 17.627-39.4043 39.4043s17.6758 39.4043 39.4043 39.4043Zm0-7.42188c-17.6758 0-31.9336-14.3066-31.9336-31.9824s14.2578-31.9824 31.9336-31.9824 31.9824 14.3066 31.9824 31.9824-14.3066 31.9824-31.9824 31.9824Zm3.61328-17.7734v-28.4668c0-2.24609-1.46484-3.75977-3.71094-3.75977-2.14844 0-3.61328 1.51367-3.61328 3.75977v28.4668c0 2.19727 1.46484 3.71094 3.61328 3.71094 2.24609 0 3.71094-1.51367 3.71094-3.71094Zm-17.8223-10.5957h28.418c2.19727 0 3.71094-1.46484 3.71094-3.61328 0-2.19727-1.51367-3.71094-3.71094-3.71094h-28.418c-2.24609 0-3.75977 1.51367-3.75977 3.71094 0 2.14844 1.51367 3.61328 3.75977 3.61328Z"/>
  </g>
  <g transform="matrix(0.2 0 0 0.2 281.506 1933)">
   <path d="m58.5449 14.5508c27.4902 0 49.8047-22.3145 49.8047-49.8047s-22.3145-49.8047-49.8047-49.8047-49.8047 22.3145-49.8047 49.8047 22.3145 49.8047 49.8047 49.8047Zm0-8.30078c-22.9492 0-41.5039-18.5547-41.5039-41.5039s18.5547-41.5039 41.5039-41.5039 41.5039 18.5547 41.5039 41.5039-18.5547 41.5039-41.5039 41.5039Zm4.05273-23.0957v-36.9141c0-2.49023-1.70898-4.19922-4.15039-4.19922-2.39258 0-4.05273 1.70898-4.05273 4.19922v36.9141c0 2.44141 1.66016 4.15039 4.05273 4.15039 2.44141 0 4.15039-1.66016 4.15039-4.15039Zm-22.5586-14.4043h36.9629c2.44141 0 4.15039-1.61133 4.15039-4.00391 0-2.44141-1.70898-4.15039-4.15039-4.15039h-36.9629c-2.49023 0-4.15039 1.70898-4.15039 4.15039 0 2.39258 1.66016 4.00391 4.15039 4.00391Z"/>
  </g>
  <g transform="matrix(0.2 0 0 0.2 304.924 1933)">
   <path d="m74.8535 28.3203c35.1074 0 63.623-28.4668 63.623-63.5742s-28.5156-63.623-63.623-63.623-63.5742 28.5156-63.5742 63.623 28.4668 63.5742 63.5742 63.5742Zm0-9.08203c-30.127 0-54.4922-24.3652-54.4922-54.4922s24.3652-54.4922 54.4922-54.4922 54.4922 24.3652 54.4922 54.4922-24.3652 54.4922-54.4922 54.4922Zm4.44336-30.3223v-48.4863c0-2.73438-1.85547-4.63867-4.54102-4.63867-2.58789 0-4.44336 1.9043-4.44336 4.63867v48.4863c0 2.68555 1.85547 4.58984 4.44336 4.58984 2.68555 0 4.54102-1.85547 4.54102-4.58984Zm-28.7109-19.7754h48.4863c2.68555 0 4.58984-1.80664 4.58984-4.39453 0-2.73438-1.85547-4.58984-4.58984-4.58984h-48.4863c-2.73438 0-4.58984 1.85547-4.58984 4.58984 0 2.58789 1.85547 4.39453 4.58984 4.39453Z"/>
  </g>
  <text style="stroke:none;fill:black;font-family:sans-serif;font-size:13;font-weight:bold;" transform="matrix(1 0 0 1 263 1953)">Design Variations</text>
  <text style="stroke:none;fill:black;font-family:sans-serif;font-size:13;" transform="matrix(1 0 0 1 263 1971)">Symbols are supported in up to nine weights and three scales.</text>
  <text style="stroke:none;fill:black;font-family:sans-serif;font-size:13;" transform="matrix(1 0 0 1 263 1989)">For optimal layout with text and other symbols, vertically align</text>
  <text style="stroke:none;fill:black;font-family:sans-serif;font-size:13;" transform="matrix(1 0 0 1 263 2007)">symbols with the adjacent text.</text>
  <line style="fill:none;stroke:#00AEEF;stroke-width:0.5;opacity:1.0;" x1="776" x2="776" y1="1919" y2="1933"/>
  <g transform="matrix(0.2 0 0 0.2 776 1933)">
   <path d="m16.5527 0.78125c2.58789 0 3.85742-0.976562 4.78516-3.71094l20.5566-57.5195h0.244141l20.6055 57.5195c0.927734 2.73438 2.19727 3.71094 4.73633 3.71094 2.58789 0 4.24805-1.5625 4.24805-4.00391 0-0.830078-0.146484-1.61133-0.537109-2.63672l-22.9004-60.9863c-1.12305-2.97852-3.125-4.49219-6.25-4.49219-3.02734 0-5.07812 1.46484-6.15234 4.44336l-22.9004 61.084c-0.390625 1.02539-0.537109 1.80664-0.537109 2.63672 0 2.44141 1.5625 3.95508 4.10156 3.95508Zm10.2051-20.9473h30.6641c2.00195 0 3.66211-1.66016 3.66211-3.66211 0-2.05078-1.66016-3.66211-3.66211-3.66211h-30.6641c-2.00195 0-3.66211 1.61133-3.66211 3.66211 0 2.00195 1.66016 3.66211 3.66211 3.66211Z"/>
  </g>
  <line style="fill:none;stroke:#00AEEF;stroke-width:0.5;opacity:1.0;" x1="792.836" x2="792.836" y1="1919" y2="1933"/>
  <text style="stroke:none;fill:black;font-family:sans-serif;font-size:13;font-weight:bold;" transform="matrix(1 0 0 1 776 1953)">Margins</text>
  <text style="stroke:none;fill:black;font-family:sans-serif;font-size:13;" transform="matrix(1 0 0 1 776 1971)">Leading and trailing margins on the left and right side of each symbol</text>
  <text style="stroke:none;fill:black;font-family:sans-serif;font-size:13;" transform="matrix(1 0 0 1 776 1989)">can be adjusted by modifying the x-location of the margin guidelines.</text>
  <text style="stroke:none;fill:black;font-family:sans-serif;font-size:13;" transform="matrix(1 0 0 1 776 2007)">Modifications are automatically applied proportionally to all</text>
  <text style="stroke:none;fill:black;font-family:sans-serif;font-size:13;" transform="matrix(1 0 0 1 776 2025)">scales and weights.</text>
  <g transform="matrix(0.2 0 0 0.2 1289 1933)">
   <path d="m14.209 13.1348 7.86133 7.86133c4.29688 4.39453 9.32617 4.10156 13.8672-1.02539l60.6934-68.2129-4.88281-4.88281-60.2539 67.6758c-1.80664 1.95312-3.4668 2.44141-5.81055 0.0976562l-5.17578-5.12695c-2.29492-2.29492-1.80664-3.95508 0.195312-5.81055l67.4805-62.1582-4.88281-4.83398-68.0664 62.5977c-4.98047 4.58984-5.32227 9.47266-1.02539 13.8184Zm44.873-97.4609c-2.05078 2.00195-2.24609 4.88281-1.07422 6.78711 1.12305 1.80664 3.4668 3.02734 6.5918 2.24609 5.85938-1.66016 12.5977-2.39258 18.8965 0.927734l-2.68555 7.12891c-1.61133 4.00391-0.732422 6.88477 1.70898 9.42383l10.2539 10.3027c2.34375 2.39258 4.54102 2.44141 7.08008 1.95312l4.44336-0.732422 2.58789 2.53906-0.195312 2.24609c-0.0976562 2.29492 0.537109 4.29688 2.7832 6.49414l3.36914 3.32031c2.29492 2.29492 5.51758 2.49023 7.8125 0.195312l12.9883-13.0371c2.29492-2.34375 2.14844-5.37109-0.195312-7.66602l-3.41797-3.41797c-2.19727-2.19727-4.05273-3.02734-6.34766-2.88086l-2.34375 0.244141-2.44141-2.44141 1.02539-4.6875c0.634766-2.73438-0.244141-4.98047-2.88086-7.61719l-11.2793-11.1816c-12.9395-12.8418-35.5957-11.0352-46.6797-0.146484Zm7.08008 2.05078c8.78906-6.39648 25.9766-5.66406 33.6914 1.95312l12.3047 12.207c1.02539 1.02539 1.2207 1.80664 0.927734 3.32031l-1.46484 6.64062 6.73828 6.68945 4.39453-0.244141c1.12305-0.0488281 1.51367 0.0488281 2.34375 0.878906l2.53906 2.49023-10.8398 10.8398-2.49023-2.49023c-0.830078-0.878906-0.976562-1.2207-0.927734-2.39258l0.292969-4.3457-6.68945-6.73828-6.83594 1.17188c-1.41602 0.292969-2.05078 0.195312-3.17383-0.878906l-8.93555-8.88672c-1.07422-1.02539-1.17188-1.70898-0.488281-3.36914l4.58984-11.4746c-6.10352-6.34766-17.041-7.51953-25.5859-4.58984-0.683594 0.244141-0.927734-0.390625-0.390625-0.78125Z"/>
  </g>
  <text style="stroke:none;fill:black;font-family:sans-serif;font-size:13;font-weight:bold;" transform="matrix(1 0 0 1 1289 1953)">Exporting</text>
  <text style="stroke:none;fill:black;font-family:sans-serif;font-size:13;" transform="matrix(1 0 0 1 1289 1971)">Symbols should be outlined when exporting to ensure the</text>
  <text style="stroke:none;fill:black;font-family:sans-serif;font-size:13;" transform="matrix(1 0 0 1 1289 1989)">design is preserved when submitting to Xcode.</text>
  <text id="template-version" style="stroke:none;fill:black;font-family:sans-serif;font-size:13;text-anchor:end;" transform="matrix(1 0 0 1 3036 1933)">Template v.6.0</text>
  <text style="stroke:none;fill:black;font-family:sans-serif;font-size:13;text-anchor:end;" transform="matrix(1 0 0 1 3036 1951)">Requires Xcode 16 or greater</text>
  <text id="descriptive-name" style="stroke:none;fill:black;font-family:sans-serif;font-size:13;text-anchor:end;" transform="matrix(1 0 0 1 3036 1969)">Generated from Acceleration</text>
  <text style="stroke:none;fill:black;font-family:sans-serif;font-size:13;text-anchor:end;" transform="matrix(1 0 0 1 3036 1987)">Typeset at 100.0 points</text>
  <text style="stroke:none;fill:black;font-family:sans-serif;font-size:13;" transform="matrix(1 0 0 1 263 726)">Small</text>
  <text style="stroke:none;fill:black;font-family:sans-serif;font-size:13;" transform="matrix(1 0 0 1 263 1156)">Medium</text>
  <text style="stroke:none;fill:black;font-family:sans-serif;font-size:13;" transform="matrix(1 0 0 1 263 1586)">Large</text>
 </g>
 <g id="Guides">
  <g id="H-reference" style="fill:#27AAE1;stroke:none;" transform="matrix(1 0 0 1 339 696)">
   <path d="M0.993654 0L3.63775 0L29.3281-67.1323L30.0303-67.1323L30.0303-70.459L28.1226-70.459ZM11.6885-24.4799L46.9815-24.4799L46.2315-26.7285L12.4385-26.7285ZM55.1196 0L57.7637 0L30.6382-70.459L29.4326-70.459L29.4326-67.1323Z"/>
  </g>
  <line id="Baseline-S" style="fill:none;stroke:#27AAE1;opacity:1;stroke-width:0.5;" x1="263" x2="3036" y1="696" y2="696"/>
  <line id="Capline-S" style="fill:none;stroke:#27AAE1;opacity:1;stroke-width:0.5;" x1="263" x2="3036" y1="625.541" y2="625.541"/>
  <g id="H-reference" style="fill:#27AAE1;stroke:none;" transform="matrix(1 0 0 1 339 1126)">
   <path d="M0.993654 0L3.63775 0L29.3281-67.1323L30.0303-67.1323L30.0303-70.459L28.1226-70.459ZM11.6885-24.4799L46.9815-24.4799L46.2315-26.7285L12.4385-26.7285ZM55.1196 0L57.7637 0L30.6382-70.459L29.4326-70.459L29.4326-67.1323Z"/>
  </g>
  <line id="Baseline-M" style="fill:none;stroke:#27AAE1;opacity:1;stroke-width:0.5;" x1="263" x2="3036" y1="1126" y2="1126"/>
  <line id="Capline-M" style="fill:none;stroke:#27AAE1;opacity:1;stroke-width:0.5;" x1="263" x2="3036" y1="1055.54" y2="1055.54"/>
  <g id="H-reference" style="fill:#27AAE1;stroke:none;" transform="matrix(1 0 0 1 339 1556)">
   <path d="M0.993654 0L3.63775 0L29.3281-67.1323L30.0303-67.1323L30.0303-70.459L28.1226-70.459ZM11.6885-24.4799L46.9815-24.4799L46.2315-26.7285L12.4385-26.7285ZM55.1196 0L57.7637 0L30.6382-70.459L29.4326-70.459L29.4326-67.1323Z"/>
  </g>
  <line id="Baseline-L" style="fill:none;stroke:#27AAE1;opacity:1;stroke-width:0.5;" x1="263" x2="3036" y1="1556" y2="1556"/>
  <line id="Capline-L" style="fill:none;stroke:#27AAE1;opacity:1;stroke-width:0.5;" x1="263" x2="3036" y1="1485.54" y2="1485.54"/>
  <line id="right-margin-Black-S" style="fill:none;stroke:#00AEEF;stroke-width:0.5;opacity:1.0;" x1="2980.81" x2="2980.81" y1="600.785" y2="720.121"/>
  <line id="left-margin-Black-S" style="fill:none;stroke:#00AEEF;stroke-width:0.5;opacity:1.0;" x1="2885.99" x2="2885.99" y1="600.785" y2="720.121"/>
  <line id="right-margin-Regular-S" style="fill:none;stroke:#00AEEF;stroke-width:0.5;opacity:1.0;" x1="1493.96" x2="1493.96" y1="600.785" y2="720.121"/>
  <line id="left-margin-Regular-S" style="fill:none;stroke:#00AEEF;stroke-width:0.5;opacity:1.0;" x1="1405.73" x2="1405.73" y1="600.785" y2="720.121"/>
  <line id="right-margin-Ultralight-S" style="fill:none;stroke:#00AEEF;stroke-width:0.5;opacity:1.0;" x1="601.625" x2="601.625" y1="600.785" y2="720.121"/>
  <line id="left-margin-Ultralight-S" style="fill:none;stroke:#00AEEF;stroke-width:0.5;opacity:1.0;" x1="517.797" x2="517.797" y1="600.785" y2="720.121"/>
 </g>
 <g id="Symbols">
  <g id="Black-S" transform="matrix(1 0 0 1 2885.99 696)">
   <path class="monochrome-0 multicolor-0:tintColor hierarchical-0:primary SFSymbolsPreviewWireframe" d="M14.11-23.278C13.95-23.702 14.17-24.175 14.59-24.336C37.37-32.963 54.42-46.937 65.3-65.885L60.57-64.729C60.13-64.621 59.69-64.891 59.58-65.331C59.47-65.771 59.74-66.216 60.18-66.322L66.74-67.927C67.17-68.031 67.6-67.781 67.72-67.36L69.61-60.878C69.74-60.443 69.49-59.988 69.06-59.861C68.98-59.839 68.9-59.828 68.83-59.828C68.47-59.828 68.14-60.061 68.04-60.419L66.69-65.026C61.21-55.478 54.17-47.117 45.74-40.162C37.14-33.068 26.86-27.229 15.17-22.803C15.08-22.768 14.98-22.75 14.88-22.75C14.55-22.747 14.24-22.95 14.11-23.278ZM24.4-15.928L24.4-2.871C24.4-2.419 24.03-2.051 23.58-2.051L14.88-2.051C14.43-2.051 14.06-2.419 14.06-2.871L14.06-15.928C14.06-16.38 14.43-16.748 14.88-16.748L23.58-16.748C24.03-16.748 24.4-16.38 24.4-15.928ZM22.76-15.107L15.7-15.107L15.7-3.691L22.76-3.691L22.76-15.107ZM68.4-16.151C68.4-14.752 67.26-13.613 65.86-13.613C64.46-13.613 63.32-14.751 63.32-16.151C63.32-16.477 63.39-16.788 63.5-17.075L62.02-18.551C61.7-18.871 61.7-19.391 62.02-19.712C62.34-20.032 62.86-20.032 63.18-19.712L64.57-18.328C64.95-18.555 65.39-18.688 65.86-18.688C67.26-18.687 68.4-17.549 68.4-16.151ZM66.76-16.151C66.76-16.645 66.35-17.047 65.86-17.047C65.36-17.047 64.96-16.645 64.96-16.151C64.96-15.656 65.36-15.254 65.86-15.254C66.35-15.254 66.76-15.656 66.76-16.151ZM74.31-16.151C74.31-11.493 70.52-7.703 65.86-7.703C61.2-7.703 57.41-11.493 57.41-16.151C57.41-20.809 61.2-24.598 65.86-24.598C70.52-24.598 74.31-20.809 74.31-16.151ZM72.67-16.151C72.67-19.903 69.61-22.958 65.86-22.958C62.11-22.958 59.05-19.905 59.05-16.151C59.05-12.396 62.11-9.343 65.86-9.343C69.61-9.343 72.67-12.396 72.67-16.151ZM79.62-13.07L79.62-2.871C79.62-2.419 79.25-2.051 78.8-2.051L70.1-2.051C69.78-2.051 69.51-2.231 69.37-2.494C68.25-2.205 67.07-2.051 65.86-2.051C65.63-2.051 65.39-2.056 65.16-2.069C65.11-2.058 65.05-2.051 65-2.051L56.3-2.051C55.84-2.051 55.48-2.419 55.48-2.871L55.48-6.625C53.74-8.518 52.51-10.884 52.01-13.506L52.01-2.871C52.01-2.419 51.64-2.051 51.19-2.051L42.49-2.051C42.04-2.051 41.67-2.419 41.67-2.871L41.67-26.994C41.67-27.446 42.04-27.814 42.49-27.814L51.19-27.814C51.64-27.814 52.01-27.446 52.01-26.994L52.01-18.795C52.31-20.351 52.86-21.818 53.62-23.148C53.63-23.166 53.64-23.183 53.65-23.2C53.66-23.223 53.68-23.246 53.69-23.267C54.2-24.132 54.8-24.94 55.48-25.674L55.48-35.105C55.48-35.558 55.84-35.926 56.3-35.926L65-35.926C65.45-35.926 65.82-35.558 65.82-35.105L65.82-30.248L65.86-30.248C67.04-30.248 68.19-30.101 69.28-29.828L69.28-45.769C69.28-46.222 69.65-46.59 70.1-46.59L78.8-46.59C79.25-46.59 79.62-46.222 79.62-45.769L79.62-19.229C79.84-18.238 79.96-17.207 79.96-16.149C79.96-15.091 79.84-14.062 79.62-13.07ZM50.37-26.173L43.31-26.173L43.31-3.691L50.37-3.691L50.37-26.173ZM70.92-29.31C71.59-29.05 72.24-28.742 72.86-28.387C72.87-28.379 72.89-28.37 72.91-28.36C72.93-28.346 72.96-28.331 72.98-28.316C75.03-27.109 76.76-25.394 77.98-23.347L77.98-44.949L70.92-44.949L70.92-29.31L70.92-29.31ZM57.11-34.286L57.11-27.202C57.63-27.61 58.17-27.982 58.74-28.317C58.77-28.332 58.79-28.347 58.81-28.361C58.83-28.37 58.84-28.379 58.86-28.388C60.46-29.307 62.26-29.921 64.17-30.149L64.17-34.288L57.11-34.288L57.11-34.286ZM59.27-3.691C58.51-4.096 57.78-4.566 57.11-5.098L57.11-3.691L59.27-3.691ZM65.86-3.691C71.73-3.691 76.67-7.778 77.98-13.258L77.98-19.042C77.76-19.955 77.44-20.83 77.03-21.653L75.72-20.897C75.6-20.822 75.45-20.788 75.31-20.788C75.03-20.788 74.76-20.936 74.6-21.198C74.38-21.591 74.51-22.092 74.9-22.319L76.21-23.074C75.31-24.428 74.14-25.594 72.79-26.502L72.03-25.193C71.88-24.931 71.6-24.783 71.32-24.783C71.18-24.783 71.04-24.819 70.91-24.892C70.52-25.119 70.38-25.621 70.61-26.013L71.37-27.323C69.94-28.03 68.35-28.47 66.68-28.58L66.68-27.065C66.68-26.612 66.31-26.245 65.86-26.245C65.41-26.245 65.04-26.612 65.04-27.065L65.04-28.58C63.37-28.47 61.79-28.03 60.36-27.323L61.11-26.013C61.34-25.621 61.21-25.119 60.81-24.892C60.68-24.817 60.54-24.783 60.4-24.783C60.12-24.783 59.85-24.931 59.69-25.193L58.94-26.502C57.59-25.594 56.42-24.428 55.51-23.074L56.82-22.319C57.21-22.092 57.35-21.591 57.12-21.198C56.97-20.936 56.69-20.788 56.41-20.788C56.27-20.788 56.13-20.824 56-20.897L54.69-21.653C53.87-19.992 53.41-18.123 53.41-16.149C53.4-9.28 58.99-3.691 65.86-3.691ZM77.98-8.952C76.66-6.733 74.74-4.907 72.45-3.691L77.98-3.691L77.98-8.952ZM38.21-20.504L38.21-2.871C38.21-2.419 37.84-2.051 37.39-2.051L28.69-2.051C28.23-2.051 27.87-2.419 27.87-2.871L27.87-20.504C27.87-20.956 28.23-21.324 28.69-21.324L37.39-21.324C37.84-21.324 38.21-20.956 38.21-20.504ZM36.56-19.683L29.51-19.683L29.51-3.691L36.56-3.691L36.56-19.683Z"/>
  </g>
  <g id="Regular-S" transform="matrix(1 0 0 1 1405.73 696)">
   <path class="monochrome-0 multicolor-0:tintColor hierarchical-0:primary SFSymbolsPreviewWireframe" d="M11.37-23.278C11.21-23.702 11.43-24.175 11.85-24.336C34.63-32.963 51.68-46.937 62.56-65.885L57.83-64.729C57.39-64.621 56.95-64.891 56.84-65.331C56.73-65.771 57-66.216 57.44-66.322L64-67.927C64.43-68.031 64.86-67.781 64.98-67.36L66.87-60.878C67-60.443 66.75-59.988 66.32-59.861C66.24-59.839 66.16-59.828 66.09-59.828C65.73-59.828 65.4-60.061 65.3-60.419L63.95-65.026C58.47-55.478 51.43-47.117 43-40.162C34.4-33.068 24.12-27.229 12.43-22.803C12.34-22.768 12.24-22.75 12.14-22.75C11.81-22.747 11.5-22.95 11.37-23.278ZM21.66-15.928L21.66-2.871C21.66-2.419 21.29-2.051 20.84-2.051L12.14-2.051C11.69-2.051 11.32-2.419 11.32-2.871L11.32-15.928C11.32-16.38 11.69-16.748 12.14-16.748L20.84-16.748C21.29-16.748 21.66-16.38 21.66-15.928ZM20.02-15.107L12.96-15.107L12.96-3.691L20.02-3.691L20.02-15.107ZM65.66-16.151C65.66-14.752 64.52-13.613 63.12-13.613C61.72-13.613 60.58-14.751 60.58-16.151C60.58-16.477 60.65-16.788 60.76-17.075L59.28-18.551C58.96-18.871 58.96-19.391 59.28-19.712C59.6-20.032 60.12-20.032 60.44-19.712L61.83-18.328C62.21-18.555 62.65-18.688 63.12-18.688C64.52-18.687 65.66-17.549 65.66-16.151ZM64.02-16.151C64.02-16.645 63.61-17.047 63.12-17.047C62.62-17.047 62.22-16.645 62.22-16.151C62.22-15.656 62.62-15.254 63.12-15.254C63.61-15.254 64.02-15.656 64.02-16.151ZM71.57-16.151C71.57-11.493 67.78-7.703 63.12-7.703C58.46-7.703 54.67-11.493 54.67-16.151C54.67-20.809 58.46-24.598 63.12-24.598C67.78-24.598 71.57-20.809 71.57-16.151ZM69.93-16.151C69.93-19.903 66.87-22.958 63.12-22.958C59.37-22.958 56.31-19.905 56.31-16.151C56.31-12.396 59.37-9.343 63.12-9.343C66.87-9.343 69.93-12.396 69.93-16.151ZM76.88-13.07L76.88-2.871C76.88-2.419 76.51-2.051 76.06-2.051L67.36-2.051C67.04-2.051 66.77-2.231 66.63-2.494C65.51-2.205 64.33-2.051 63.12-2.051C62.89-2.051 62.65-2.056 62.42-2.069C62.37-2.058 62.31-2.051 62.26-2.051L53.56-2.051C53.1-2.051 52.74-2.419 52.74-2.871L52.74-6.625C51-8.518 49.77-10.884 49.27-13.506L49.27-2.871C49.27-2.419 48.9-2.051 48.45-2.051L39.75-2.051C39.3-2.051 38.93-2.419 38.93-2.871L38.93-26.994C38.93-27.446 39.3-27.814 39.75-27.814L48.45-27.814C48.9-27.814 49.27-27.446 49.27-26.994L49.27-18.795C49.57-20.351 50.12-21.818 50.88-23.148C50.89-23.166 50.9-23.183 50.91-23.2C50.92-23.223 50.94-23.246 50.95-23.267C51.46-24.132 52.06-24.94 52.74-25.674L52.74-35.105C52.74-35.558 53.1-35.926 53.56-35.926L62.26-35.926C62.71-35.926 63.08-35.558 63.08-35.105L63.08-30.248L63.12-30.248C64.3-30.248 65.45-30.101 66.54-29.828L66.54-45.769C66.54-46.222 66.91-46.59 67.36-46.59L76.06-46.59C76.51-46.59 76.88-46.222 76.88-45.769L76.88-19.229C77.1-18.238 77.22-17.207 77.22-16.149C77.22-15.091 77.1-14.062 76.88-13.07ZM47.63-26.173L40.57-26.173L40.57-3.691L47.63-3.691L47.63-26.173ZM68.18-29.31C68.85-29.05 69.5-28.742 70.12-28.387C70.13-28.379 70.15-28.37 70.17-28.36C70.19-28.346 70.22-28.331 70.24-28.316C72.29-27.109 74.02-25.394 75.24-23.347L75.24-44.949L68.18-44.949L68.18-29.31L68.18-29.31ZM54.37-34.286L54.37-27.202C54.89-27.61 55.43-27.982 56-28.317C56.03-28.332 56.05-28.347 56.07-28.361C56.09-28.37 56.1-28.379 56.12-28.388C57.72-29.307 59.52-29.921 61.43-30.149L61.43-34.288L54.37-34.288L54.37-34.286ZM56.53-3.691C55.77-4.096 55.04-4.566 54.37-5.098L54.37-3.691L56.53-3.691ZM63.12-3.691C68.99-3.691 73.93-7.778 75.24-13.258L75.24-19.042C75.02-19.955 74.7-20.83 74.29-21.653L72.98-20.897C72.86-20.822 72.71-20.788 72.57-20.788C72.29-20.788 72.02-20.936 71.86-21.198C71.64-21.591 71.77-22.092 72.16-22.319L73.47-23.074C72.57-24.428 71.4-25.594 70.05-26.502L69.29-25.193C69.14-24.931 68.86-24.783 68.58-24.783C68.44-24.783 68.3-24.819 68.17-24.892C67.78-25.119 67.64-25.621 67.87-26.013L68.63-27.323C67.2-28.03 65.61-28.47 63.94-28.58L63.94-27.065C63.94-26.612 63.57-26.245 63.12-26.245C62.67-26.245 62.3-26.612 62.3-27.065L62.3-28.58C60.63-28.47 59.05-28.03 57.62-27.323L58.37-26.013C58.6-25.621 58.47-25.119 58.07-24.892C57.94-24.817 57.8-24.783 57.66-24.783C57.38-24.783 57.11-24.931 56.95-25.193L56.2-26.502C54.85-25.594 53.68-24.428 52.77-23.074L54.08-22.319C54.47-22.092 54.61-21.591 54.38-21.198C54.23-20.936 53.95-20.788 53.67-20.788C53.53-20.788 53.39-20.824 53.26-20.897L51.95-21.653C51.13-19.992 50.67-18.123 50.67-16.149C50.66-9.28 56.25-3.691 63.12-3.691ZM75.24-8.952C73.92-6.733 72-4.907 69.71-3.691L75.24-3.691L75.24-8.952ZM35.47-20.504L35.47-2.871C35.47-2.419 35.1-2.051 34.65-2.051L25.95-2.051C25.49-2.051 25.13-2.419 25.13-2.871L25.13-20.504C25.13-20.956 25.49-21.324 25.95-21.324L34.65-21.324C35.1-21.324 35.47-20.956 35.47-20.504ZM33.82-19.683L26.77-19.683L26.77-3.691L33.82-3.691L33.82-19.683Z"/>
  </g>
  <g id="Ultralight-S" transform="matrix(1 0 0 1 517.797 696)">
   <path class="monochrome-0 multicolor-0:tintColor hierarchical-0:primary SFSymbolsPreviewWireframe" d="M10.307-23.278C10.147-23.702 10.36-24.175 10.784-24.336C33.566-32.963 50.616-46.937 61.489-65.885L56.766-64.729C56.327-64.621 55.881-64.891 55.774-65.331C55.666-65.771 55.936-66.216 56.376-66.322L62.934-67.927C63.361-68.031 63.794-67.781 63.917-67.36L65.807-60.878C65.934-60.443 65.684-59.988 65.249-59.861C65.172-59.839 65.094-59.828 65.019-59.828C64.664-59.828 64.337-60.061 64.232-60.419L62.888-65.026C57.403-55.478 50.359-47.117 41.932-40.162C33.336-33.068 23.053-27.229 11.365-22.803C11.27-22.768 11.171-22.75 11.075-22.75C10.743-22.747 10.432-22.95 10.307-23.278ZM20.594-15.928L20.594-2.871C20.594-2.419 20.226-2.051 19.774-2.051L11.074-2.051C10.622-2.051 10.254-2.419 10.254-2.871L10.254-15.928C10.254-16.38 10.622-16.748 11.074-16.748L19.774-16.748C20.227-16.748 20.594-16.38 20.594-15.928ZM18.953-15.107L11.894-15.107L11.894-3.691L18.953-3.691L18.953-15.107ZM64.59-16.151C64.59-14.752 63.452-13.613 62.052-13.613C60.652-13.613 59.515-14.751 59.515-16.151C59.515-16.477 59.579-16.788 59.691-17.075L58.215-18.551C57.895-18.871 57.895-19.391 58.215-19.712C58.535-20.032 59.054-20.032 59.375-19.712L60.759-18.328C61.139-18.555 61.581-18.688 62.054-18.688C63.452-18.687 64.59-17.549 64.59-16.151ZM62.949-16.151C62.949-16.645 62.547-17.047 62.052-17.047C61.557-17.047 61.156-16.645 61.156-16.151C61.156-15.656 61.557-15.254 62.052-15.254C62.547-15.254 62.949-15.656 62.949-16.151ZM70.5-16.151C70.5-11.493 66.71-7.703 62.052-7.703C57.394-7.703 53.605-11.493 53.605-16.151C53.605-20.809 57.394-24.598 62.052-24.598C66.71-24.598 70.5-20.809 70.5-16.151ZM68.86-16.151C68.86-19.903 65.807-22.958 62.052-22.958C58.298-22.958 55.245-19.905 55.245-16.151C55.245-12.396 58.298-9.343 62.052-9.343C65.807-9.343 68.86-12.396 68.86-16.151ZM75.813-13.07L75.813-2.871C75.813-2.419 75.445-2.051 74.993-2.051L66.293-2.051C65.976-2.051 65.703-2.231 65.566-2.494C64.444-2.205 63.266-2.051 62.054-2.051C61.82-2.051 61.588-2.056 61.357-2.069C61.302-2.058 61.246-2.051 61.188-2.051L52.489-2.051C52.036-2.051 51.669-2.419 51.669-2.871L51.669-6.625C49.931-8.518 48.705-10.884 48.204-13.506L48.204-2.871C48.204-2.419 47.836-2.051 47.384-2.051L38.684-2.051C38.232-2.051 37.864-2.419 37.864-2.871L37.864-26.994C37.864-27.446 38.232-27.814 38.684-27.814L47.384-27.814C47.836-27.814 48.204-27.446 48.204-26.994L48.204-18.795C48.501-20.351 49.053-21.818 49.816-23.148C49.824-23.166 49.832-23.183 49.843-23.2C49.857-23.223 49.872-23.246 49.887-23.267C50.396-24.132 50.993-24.94 51.669-25.674L51.669-35.105C51.669-35.558 52.036-35.926 52.489-35.926L61.188-35.926C61.641-35.926 62.009-35.558 62.009-35.105L62.009-30.248L62.054-30.248C63.232-30.248 64.378-30.101 65.473-29.828L65.473-45.769C65.473-46.222 65.841-46.59 66.293-46.59L74.993-46.59C75.445-46.59 75.813-46.222 75.813-45.769L75.813-19.229C76.035-18.238 76.152-17.207 76.152-16.149C76.152-15.091 76.035-14.062 75.813-13.07ZM46.562-26.173L39.503-26.173L39.503-3.691L46.562-3.691L46.562-26.173ZM67.112-29.31C67.784-29.05 68.432-28.742 69.05-28.387C69.067-28.379 69.085-28.37 69.103-28.36C69.126-28.346 69.149-28.331 69.171-28.316C71.228-27.109 72.952-25.394 74.173-23.347L74.173-44.949L67.114-44.949L67.114-29.31L67.112-29.31ZM53.308-34.286L53.308-27.202C53.823-27.61 54.366-27.982 54.936-28.317C54.958-28.332 54.98-28.347 55.003-28.361C55.021-28.37 55.037-28.379 55.055-28.388C56.656-29.307 58.453-29.921 60.367-30.149L60.367-34.288L53.308-34.288L53.308-34.286ZM55.458-3.691C54.698-4.096 53.978-4.566 53.308-5.098L53.308-3.691L55.458-3.691ZM62.052-3.691C67.927-3.691 72.864-7.778 74.171-13.258L74.171-19.042C73.954-19.955 73.634-20.83 73.226-21.653L71.917-20.897C71.788-20.822 71.646-20.788 71.508-20.788C71.225-20.788 70.949-20.936 70.797-21.198C70.57-21.591 70.705-22.092 71.098-22.319L72.406-23.074C71.498-24.428 70.332-25.594 68.979-26.502L68.224-25.193C68.072-24.931 67.796-24.783 67.513-24.783C67.374-24.783 67.233-24.819 67.104-24.892C66.712-25.119 66.578-25.621 66.803-26.013L67.559-27.323C66.131-28.03 64.548-28.47 62.875-28.58L62.875-27.065C62.875-26.612 62.508-26.245 62.055-26.245C61.603-26.245 61.235-26.612 61.235-27.065L61.235-28.58C59.563-28.47 57.98-28.03 56.551-27.323L57.307-26.013C57.534-25.621 57.399-25.119 57.006-24.892C56.878-24.817 56.735-24.783 56.597-24.783C56.314-24.783 56.038-24.931 55.886-25.193L55.132-26.502C53.778-25.594 52.612-24.428 51.704-23.074L53.013-22.319C53.405-22.092 53.539-21.591 53.313-21.198C53.162-20.936 52.885-20.788 52.602-20.788C52.463-20.788 52.322-20.824 52.194-20.897L50.884-21.653C50.062-19.992 49.6-18.123 49.6-16.149C49.595-9.28 55.184-3.691 62.052-3.691ZM74.173-8.952C72.849-6.733 70.935-4.907 68.648-3.691L74.173-3.691L74.173-8.952ZM34.398-20.504L34.398-2.871C34.398-2.419 34.031-2.051 33.578-2.051L24.879-2.051C24.426-2.051 24.058-2.419 24.058-2.871L24.058-20.504C24.058-20.956 24.426-21.324 24.879-21.324L33.578-21.324C34.032-21.324 34.398-20.956 34.398-20.504ZM32.758-19.683L25.699-19.683L25.699-3.691L32.758-3.691L32.758-19.683Z"/>
  </g>
 </g>
</svg>
